solid ascii
  facet normal 9.951847e-001 9.801714e-002 -4.219571e-018
    outer loop
      vertex   -1.961571e+000 -3.901806e-001 0.000000e+000
      vertex   -2.000000e+000 -4.898587e-016 0.000000e+000
      vertex   -2.000000e+000 0.000000e+000 1.200000e+001
    endloop
  endfacet
  facet normal 9.569403e-001 2.902847e-001 0.000000e+000
    outer loop
      vertex   -1.847759e+000 -7.653669e-001 0.000000e+000
      vertex   -1.961571e+000 -3.901806e-001 0.000000e+000
      vertex   -1.961571e+000 -3.901806e-001 1.200000e+001
    endloop
  endfacet
  facet normal 8.819213e-001 4.713967e-001 0.000000e+000
    outer loop
      vertex   -1.662939e+000 -1.111140e+000 0.000000e+000
      vertex   -1.847759e+000 -7.653669e-001 0.000000e+000
      vertex   -1.847759e+000 -7.653669e-001 1.200000e+001
    endloop
  endfacet
  facet normal 7.730105e-001 6.343933e-001 0.000000e+000
    outer loop
      vertex   -1.414214e+000 -1.414214e+000 0.000000e+000
      vertex   -1.662939e+000 -1.111140e+000 0.000000e+000
      vertex   -1.662939e+000 -1.111140e+000 1.200000e+001
    endloop
  endfacet
  facet normal 6.343933e-001 7.730105e-001 0.000000e+000
    outer loop
      vertex   -1.111140e+000 -1.662939e+000 0.000000e+000
      vertex   -1.414214e+000 -1.414214e+000 0.000000e+000
      vertex   -1.414214e+000 -1.414214e+000 1.200000e+001
    endloop
  endfacet
  facet normal 4.713967e-001 8.819213e-001 0.000000e+000
    outer loop
      vertex   -7.653669e-001 -1.847759e+000 0.000000e+000
      vertex   -1.111140e+000 -1.662939e+000 0.000000e+000
      vertex   -1.111140e+000 -1.662939e+000 1.200000e+001
    endloop
  endfacet
  facet normal 2.902847e-001 9.569403e-001 0.000000e+000
    outer loop
      vertex   -3.901806e-001 -1.961571e+000 0.000000e+000
      vertex   -7.653669e-001 -1.847759e+000 0.000000e+000
      vertex   -7.653669e-001 -1.847759e+000 1.200000e+001
    endloop
  endfacet
  facet normal 9.801714e-002 9.951847e-001 0.000000e+000
    outer loop
      vertex   3.673940e-016 -2.000000e+000 0.000000e+000
      vertex   -3.901806e-001 -1.961571e+000 0.000000e+000
      vertex   -3.901806e-001 -1.961571e+000 1.200000e+001
    endloop
  endfacet
  facet normal -9.801714e-002 9.951847e-001 0.000000e+000
    outer loop
      vertex   3.901806e-001 -1.961571e+000 0.000000e+000
      vertex   3.673940e-016 -2.000000e+000 0.000000e+000
      vertex   3.673940e-016 -2.000000e+000 1.200000e+001
    endloop
  endfacet
  facet normal -2.902847e-001 9.569403e-001 0.000000e+000
    outer loop
      vertex   7.653669e-001 -1.847759e+000 0.000000e+000
      vertex   3.901806e-001 -1.961571e+000 0.000000e+000
      vertex   3.901806e-001 -1.961571e+000 1.200000e+001
    endloop
  endfacet
  facet normal -4.713967e-001 8.819213e-001 0.000000e+000
    outer loop
      vertex   1.111140e+000 -1.662939e+000 0.000000e+000
      vertex   7.653669e-001 -1.847759e+000 0.000000e+000
      vertex   7.653669e-001 -1.847759e+000 1.200000e+001
    endloop
  endfacet
  facet normal -6.343933e-001 7.730105e-001 0.000000e+000
    outer loop
      vertex   1.414214e+000 -1.414214e+000 0.000000e+000
      vertex   1.111140e+000 -1.662939e+000 0.000000e+000
      vertex   1.111140e+000 -1.662939e+000 1.200000e+001
    endloop
  endfacet
  facet normal -7.730105e-001 6.343933e-001 0.000000e+000
    outer loop
      vertex   1.662939e+000 -1.111140e+000 0.000000e+000
      vertex   1.414214e+000 -1.414214e+000 0.000000e+000
      vertex   1.414214e+000 -1.414214e+000 1.200000e+001
    endloop
  endfacet
  facet normal -8.819213e-001 4.713967e-001 0.000000e+000
    outer loop
      vertex   1.847759e+000 -7.653669e-001 0.000000e+000
      vertex   1.662939e+000 -1.111140e+000 0.000000e+000
      vertex   1.662939e+000 -1.111140e+000 1.200000e+001
    endloop
  endfacet
  facet normal -9.569403e-001 2.902847e-001 0.000000e+000
    outer loop
      vertex   1.961571e+000 -3.901806e-001 0.000000e+000
      vertex   1.847759e+000 -7.653669e-001 0.000000e+000
      vertex   1.847759e+000 -7.653669e-001 1.200000e+001
    endloop
  endfacet
  facet normal -9.951847e-001 9.801714e-002 0.000000e+000
    outer loop
      vertex   2.000000e+000 2.449294e-016 0.000000e+000
      vertex   1.961571e+000 -3.901806e-001 0.000000e+000
      vertex   1.961571e+000 -3.901806e-001 1.200000e+001
    endloop
  endfacet
  facet normal -9.951847e-001 -9.801714e-002 0.000000e+000
    outer loop
      vertex   1.961571e+000 3.901806e-001 0.000000e+000
      vertex   2.000000e+000 2.449294e-016 0.000000e+000
      vertex   2.000000e+000 2.449294e-016 1.200000e+001
    endloop
  endfacet
  facet normal -9.569403e-001 -2.902847e-001 0.000000e+000
    outer loop
      vertex   1.847759e+000 7.653669e-001 0.000000e+000
      vertex   1.961571e+000 3.901806e-001 0.000000e+000
      vertex   1.961571e+000 3.901806e-001 1.200000e+001
    endloop
  endfacet
  facet normal -8.819213e-001 -4.713967e-001 0.000000e+000
    outer loop
      vertex   1.662939e+000 1.111140e+000 0.000000e+000
      vertex   1.847759e+000 7.653669e-001 0.000000e+000
      vertex   1.847759e+000 7.653669e-001 1.200000e+001
    endloop
  endfacet
  facet normal -7.730105e-001 -6.343933e-001 0.000000e+000
    outer loop
      vertex   1.414214e+000 1.414214e+000 0.000000e+000
      vertex   1.662939e+000 1.111140e+000 0.000000e+000
      vertex   1.662939e+000 1.111140e+000 1.200000e+001
    endloop
  endfacet
  facet normal -6.343933e-001 -7.730105e-001 0.000000e+000
    outer loop
      vertex   1.111140e+000 1.662939e+000 0.000000e+000
      vertex   1.414214e+000 1.414214e+000 0.000000e+000
      vertex   1.414214e+000 1.414214e+000 1.200000e+001
    endloop
  endfacet
  facet normal -4.713967e-001 -8.819213e-001 0.000000e+000
    outer loop
      vertex   7.653669e-001 1.847759e+000 0.000000e+000
      vertex   1.111140e+000 1.662939e+000 0.000000e+000
      vertex   1.111140e+000 1.662939e+000 1.200000e+001
    endloop
  endfacet
  facet normal -2.902847e-001 -9.569403e-001 0.000000e+000
    outer loop
      vertex   3.901806e-001 1.961571e+000 0.000000e+000
      vertex   7.653669e-001 1.847759e+000 0.000000e+000
      vertex   7.653669e-001 1.847759e+000 1.200000e+001
    endloop
  endfacet
  facet normal -9.801714e-002 -9.951847e-001 0.000000e+000
    outer loop
      vertex   -1.224647e-016 2.000000e+000 0.000000e+000
      vertex   3.901806e-001 1.961571e+000 0.000000e+000
      vertex   3.901806e-001 1.961571e+000 1.200000e+001
    endloop
  endfacet
  facet normal 9.801714e-002 -9.951847e-001 0.000000e+000
    outer loop
      vertex   -3.901806e-001 1.961571e+000 0.000000e+000
      vertex   -1.224647e-016 2.000000e+000 0.000000e+000
      vertex   -1.224647e-016 2.000000e+000 1.200000e+001
    endloop
  endfacet
  facet normal 2.902847e-001 -9.569403e-001 0.000000e+000
    outer loop
      vertex   -7.653669e-001 1.847759e+000 0.000000e+000
      vertex   -3.901806e-001 1.961571e+000 0.000000e+000
      vertex   -3.901806e-001 1.961571e+000 1.200000e+001
    endloop
  endfacet
  facet normal 4.713967e-001 -8.819213e-001 0.000000e+000
    outer loop
      vertex   -1.111140e+000 1.662939e+000 0.000000e+000
      vertex   -7.653669e-001 1.847759e+000 0.000000e+000
      vertex   -7.653669e-001 1.847759e+000 1.200000e+001
    endloop
  endfacet
  facet normal 6.343933e-001 -7.730105e-001 0.000000e+000
    outer loop
      vertex   -1.414214e+000 1.414214e+000 0.000000e+000
      vertex   -1.111140e+000 1.662939e+000 0.000000e+000
      vertex   -1.111140e+000 1.662939e+000 1.200000e+001
    endloop
  endfacet
  facet normal 7.730105e-001 -6.343933e-001 0.000000e+000
    outer loop
      vertex   -1.662939e+000 1.111140e+000 0.000000e+000
      vertex   -1.414214e+000 1.414214e+000 0.000000e+000
      vertex   -1.414214e+000 1.414214e+000 1.200000e+001
    endloop
  endfacet
  facet normal 8.819213e-001 -4.713967e-001 0.000000e+000
    outer loop
      vertex   -1.847759e+000 7.653669e-001 0.000000e+000
      vertex   -1.662939e+000 1.111140e+000 0.000000e+000
      vertex   -1.662939e+000 1.111140e+000 1.200000e+001
    endloop
  endfacet
  facet normal 9.569403e-001 -2.902847e-001 0.000000e+000
    outer loop
      vertex   -1.961571e+000 3.901806e-001 0.000000e+000
      vertex   -1.847759e+000 7.653669e-001 0.000000e+000
      vertex   -1.847759e+000 7.653669e-001 1.200000e+001
    endloop
  endfacet
  facet normal 9.951847e-001 -9.801714e-002 0.000000e+000
    outer loop
      vertex   -2.000000e+000 -4.898587e-016 0.000000e+000
      vertex   -1.961571e+000 3.901806e-001 0.000000e+000
      vertex   -1.961571e+000 3.901806e-001 1.200000e+001
    endloop
  endfacet
  facet normal 9.951847e-001 -9.801714e-002 4.219571e-018
    outer loop
      vertex   -1.961571e+000 3.901806e-001 1.200000e+001
      vertex   -2.000000e+000 0.000000e+000 1.200000e+001
      vertex   -2.000000e+000 -4.898587e-016 0.000000e+000
    endloop
  endfacet
  facet normal 9.569403e-001 -2.902847e-001 0.000000e+000
    outer loop
      vertex   -1.847759e+000 7.653669e-001 1.200000e+001
      vertex   -1.961571e+000 3.901806e-001 1.200000e+001
      vertex   -1.961571e+000 3.901806e-001 0.000000e+000
    endloop
  endfacet
  facet normal 8.819213e-001 -4.713967e-001 0.000000e+000
    outer loop
      vertex   -1.662939e+000 1.111140e+000 1.200000e+001
      vertex   -1.847759e+000 7.653669e-001 1.200000e+001
      vertex   -1.847759e+000 7.653669e-001 0.000000e+000
    endloop
  endfacet
  facet normal 7.730105e-001 -6.343933e-001 0.000000e+000
    outer loop
      vertex   -1.414214e+000 1.414214e+000 1.200000e+001
      vertex   -1.662939e+000 1.111140e+000 1.200000e+001
      vertex   -1.662939e+000 1.111140e+000 0.000000e+000
    endloop
  endfacet
  facet normal 6.343933e-001 -7.730105e-001 0.000000e+000
    outer loop
      vertex   -1.111140e+000 1.662939e+000 1.200000e+001
      vertex   -1.414214e+000 1.414214e+000 1.200000e+001
      vertex   -1.414214e+000 1.414214e+000 0.000000e+000
    endloop
  endfacet
  facet normal 4.713967e-001 -8.819213e-001 0.000000e+000
    outer loop
      vertex   -7.653669e-001 1.847759e+000 1.200000e+001
      vertex   -1.111140e+000 1.662939e+000 1.200000e+001
      vertex   -1.111140e+000 1.662939e+000 0.000000e+000
    endloop
  endfacet
  facet normal 2.902847e-001 -9.569403e-001 0.000000e+000
    outer loop
      vertex   -3.901806e-001 1.961571e+000 1.200000e+001
      vertex   -7.653669e-001 1.847759e+000 1.200000e+001
      vertex   -7.653669e-001 1.847759e+000 0.000000e+000
    endloop
  endfacet
  facet normal 9.801714e-002 -9.951847e-001 0.000000e+000
    outer loop
      vertex   -1.224647e-016 2.000000e+000 1.200000e+001
      vertex   -3.901806e-001 1.961571e+000 1.200000e+001
      vertex   -3.901806e-001 1.961571e+000 0.000000e+000
    endloop
  endfacet
  facet normal -9.801714e-002 -9.951847e-001 0.000000e+000
    outer loop
      vertex   3.901806e-001 1.961571e+000 1.200000e+001
      vertex   -1.224647e-016 2.000000e+000 1.200000e+001
      vertex   -1.224647e-016 2.000000e+000 0.000000e+000
    endloop
  endfacet
  facet normal -2.902847e-001 -9.569403e-001 0.000000e+000
    outer loop
      vertex   7.653669e-001 1.847759e+000 1.200000e+001
      vertex   3.901806e-001 1.961571e+000 1.200000e+001
      vertex   3.901806e-001 1.961571e+000 0.000000e+000
    endloop
  endfacet
  facet normal -4.713967e-001 -8.819213e-001 0.000000e+000
    outer loop
      vertex   1.111140e+000 1.662939e+000 1.200000e+001
      vertex   7.653669e-001 1.847759e+000 1.200000e+001
      vertex   7.653669e-001 1.847759e+000 0.000000e+000
    endloop
  endfacet
  facet normal -6.343933e-001 -7.730105e-001 0.000000e+000
    outer loop
      vertex   1.414214e+000 1.414214e+000 1.200000e+001
      vertex   1.111140e+000 1.662939e+000 1.200000e+001
      vertex   1.111140e+000 1.662939e+000 0.000000e+000
    endloop
  endfacet
  facet normal -7.730105e-001 -6.343933e-001 0.000000e+000
    outer loop
      vertex   1.662939e+000 1.111140e+000 1.200000e+001
      vertex   1.414214e+000 1.414214e+000 1.200000e+001
      vertex   1.414214e+000 1.414214e+000 0.000000e+000
    endloop
  endfacet
  facet normal -8.819213e-001 -4.713967e-001 0.000000e+000
    outer loop
      vertex   1.847759e+000 7.653669e-001 1.200000e+001
      vertex   1.662939e+000 1.111140e+000 1.200000e+001
      vertex   1.662939e+000 1.111140e+000 0.000000e+000
    endloop
  endfacet
  facet normal -9.569403e-001 -2.902847e-001 0.000000e+000
    outer loop
      vertex   1.961571e+000 3.901806e-001 1.200000e+001
      vertex   1.847759e+000 7.653669e-001 1.200000e+001
      vertex   1.847759e+000 7.653669e-001 0.000000e+000
    endloop
  endfacet
  facet normal -9.951847e-001 -9.801714e-002 0.000000e+000
    outer loop
      vertex   2.000000e+000 2.449294e-016 1.200000e+001
      vertex   1.961571e+000 3.901806e-001 1.200000e+001
      vertex   1.961571e+000 3.901806e-001 0.000000e+000
    endloop
  endfacet
  facet normal -9.951847e-001 9.801714e-002 0.000000e+000
    outer loop
      vertex   1.961571e+000 -3.901806e-001 1.200000e+001
      vertex   2.000000e+000 2.449294e-016 1.200000e+001
      vertex   2.000000e+000 2.449294e-016 0.000000e+000
    endloop
  endfacet
  facet normal -9.569403e-001 2.902847e-001 0.000000e+000
    outer loop
      vertex   1.847759e+000 -7.653669e-001 1.200000e+001
      vertex   1.961571e+000 -3.901806e-001 1.200000e+001
      vertex   1.961571e+000 -3.901806e-001 0.000000e+000
    endloop
  endfacet
  facet normal -8.819213e-001 4.713967e-001 0.000000e+000
    outer loop
      vertex   1.662939e+000 -1.111140e+000 1.200000e+001
      vertex   1.847759e+000 -7.653669e-001 1.200000e+001
      vertex   1.847759e+000 -7.653669e-001 0.000000e+000
    endloop
  endfacet
  facet normal -7.730105e-001 6.343933e-001 0.000000e+000
    outer loop
      vertex   1.414214e+000 -1.414214e+000 1.200000e+001
      vertex   1.662939e+000 -1.111140e+000 1.200000e+001
      vertex   1.662939e+000 -1.111140e+000 0.000000e+000
    endloop
  endfacet
  facet normal -6.343933e-001 7.730105e-001 0.000000e+000
    outer loop
      vertex   1.111140e+000 -1.662939e+000 1.200000e+001
      vertex   1.414214e+000 -1.414214e+000 1.200000e+001
      vertex   1.414214e+000 -1.414214e+000 0.000000e+000
    endloop
  endfacet
  facet normal -4.713967e-001 8.819213e-001 0.000000e+000
    outer loop
      vertex   7.653669e-001 -1.847759e+000 1.200000e+001
      vertex   1.111140e+000 -1.662939e+000 1.200000e+001
      vertex   1.111140e+000 -1.662939e+000 0.000000e+000
    endloop
  endfacet
  facet normal -2.902847e-001 9.569403e-001 0.000000e+000
    outer loop
      vertex   3.901806e-001 -1.961571e+000 1.200000e+001
      vertex   7.653669e-001 -1.847759e+000 1.200000e+001
      vertex   7.653669e-001 -1.847759e+000 0.000000e+000
    endloop
  endfacet
  facet normal -9.801714e-002 9.951847e-001 0.000000e+000
    outer loop
      vertex   3.673940e-016 -2.000000e+000 1.200000e+001
      vertex   3.901806e-001 -1.961571e+000 1.200000e+001
      vertex   3.901806e-001 -1.961571e+000 0.000000e+000
    endloop
  endfacet
  facet normal 9.801714e-002 9.951847e-001 0.000000e+000
    outer loop
      vertex   -3.901806e-001 -1.961571e+000 1.200000e+001
      vertex   3.673940e-016 -2.000000e+000 1.200000e+001
      vertex   3.673940e-016 -2.000000e+000 0.000000e+000
    endloop
  endfacet
  facet normal 2.902847e-001 9.569403e-001 0.000000e+000
    outer loop
      vertex   -7.653669e-001 -1.847759e+000 1.200000e+001
      vertex   -3.901806e-001 -1.961571e+000 1.200000e+001
      vertex   -3.901806e-001 -1.961571e+000 0.000000e+000
    endloop
  endfacet
  facet normal 4.713967e-001 8.819213e-001 0.000000e+000
    outer loop
      vertex   -1.111140e+000 -1.662939e+000 1.200000e+001
      vertex   -7.653669e-001 -1.847759e+000 1.200000e+001
      vertex   -7.653669e-001 -1.847759e+000 0.000000e+000
    endloop
  endfacet
  facet normal 6.343933e-001 7.730105e-001 0.000000e+000
    outer loop
      vertex   -1.414214e+000 -1.414214e+000 1.200000e+001
      vertex   -1.111140e+000 -1.662939e+000 1.200000e+001
      vertex   -1.111140e+000 -1.662939e+000 0.000000e+000
    endloop
  endfacet
  facet normal 7.730105e-001 6.343933e-001 0.000000e+000
    outer loop
      vertex   -1.662939e+000 -1.111140e+000 1.200000e+001
      vertex   -1.414214e+000 -1.414214e+000 1.200000e+001
      vertex   -1.414214e+000 -1.414214e+000 0.000000e+000
    endloop
  endfacet
  facet normal 8.819213e-001 4.713967e-001 0.000000e+000
    outer loop
      vertex   -1.847759e+000 -7.653669e-001 1.200000e+001
      vertex   -1.662939e+000 -1.111140e+000 1.200000e+001
      vertex   -1.662939e+000 -1.111140e+000 0.000000e+000
    endloop
  endfacet
  facet normal 9.569403e-001 2.902847e-001 0.000000e+000
    outer loop
      vertex   -1.961571e+000 -3.901806e-001 1.200000e+001
      vertex   -1.847759e+000 -7.653669e-001 1.200000e+001
      vertex   -1.847759e+000 -7.653669e-001 0.000000e+000
    endloop
  endfacet
  facet normal 9.951847e-001 9.801714e-002 0.000000e+000
    outer loop
      vertex   -2.000000e+000 0.000000e+000 1.200000e+001
      vertex   -1.961571e+000 -3.901806e-001 1.200000e+001
      vertex   -1.961571e+000 -3.901806e-001 0.000000e+000
    endloop
  endfacet
  facet normal 0.000000e+000 0.000000e+000 1.000000e+000
    outer loop
      vertex   2.462646e+000 3.152043e+000 1.200000e+001
      vertex   1.111140e+000 1.662939e+000 1.200000e+001
      vertex   1.414214e+000 1.414214e+000 1.200000e+001
    endloop
  endfacet
  facet normal 0.000000e+000 0.000000e+000 1.000000e+000
    outer loop
      vertex   1.414214e+000 1.414214e+000 1.200000e+001
      vertex   2.877359e+000 2.778633e+000 1.200000e+001
      vertex   2.462646e+000 3.152043e+000 1.200000e+001
    endloop
  endfacet
  facet normal 0.000000e+000 0.000000e+000 1.000000e+000
    outer loop
      vertex   2.000000e+000 3.464102e+000 1.200000e+001
      vertex   1.498426e+000 3.708735e+000 1.200000e+001
      vertex   7.653669e-001 1.847759e+000 1.200000e+001
    endloop
  endfacet
  facet normal 0.000000e+000 0.000000e+000 1.000000e+000
    outer loop
      vertex   3.531790e+000 1.877886e+000 1.200000e+001
      vertex   3.236068e+000 2.351141e+000 1.200000e+001
      vertex   1.662939e+000 1.111140e+000 1.200000e+001
    endloop
  endfacet
  facet normal -0.000000e+000 0.000000e+000 1.000000e+000
    outer loop
      vertex   7.653669e-001 1.847759e+000 1.200000e+001
      vertex   1.111140e+000 1.662939e+000 1.200000e+001
      vertex   2.000000e+000 3.464102e+000 1.200000e+001
    endloop
  endfacet
  facet normal 0.000000e+000 0.000000e+000 1.000000e+000
    outer loop
      vertex   9.676876e-001 3.881183e+000 1.200000e+001
      vertex   3.901806e-001 1.961571e+000 1.200000e+001
      vertex   7.653669e-001 1.847759e+000 1.200000e+001
    endloop
  endfacet
  facet normal 0.000000e+000 0.000000e+000 1.000000e+000
    outer loop
      vertex   4.181139e-001 3.978088e+000 1.200000e+001
      vertex   -1.395980e-001 3.997563e+000 1.200000e+001
      vertex   -1.224647e-016 2.000000e+000 1.200000e+001
    endloop
  endfacet
  facet normal 0.000000e+000 0.000000e+000 1.000000e+000
    outer loop
      vertex   -1.236068e+000 3.804226e+000 1.200000e+001
      vertex   -7.653669e-001 1.847759e+000 1.200000e+001
      vertex   -3.901806e-001 1.961571e+000 1.200000e+001
    endloop
  endfacet
  facet normal 0.000000e+000 0.000000e+000 1.000000e+000
    outer loop
      vertex   -3.845047e+000 1.102549e+000 1.200000e+001
      vertex   -1.961571e+000 3.901806e-001 1.200000e+001
      vertex   -1.847759e+000 7.653669e-001 1.200000e+001
    endloop
  endfacet
  facet normal 0.000000e+000 0.000000e+000 1.000000e+000
    outer loop
      vertex   1.847759e+000 7.653669e-001 1.200000e+001
      vertex   3.758770e+000 1.368081e+000 1.200000e+001
      vertex   3.531790e+000 1.877886e+000 1.200000e+001
    endloop
  endfacet
  facet normal 0.000000e+000 0.000000e+000 1.000000e+000
    outer loop
      vertex   3.236068e+000 2.351141e+000 1.200000e+001
      vertex   2.877359e+000 2.778633e+000 1.200000e+001
      vertex   1.414214e+000 1.414214e+000 1.200000e+001
    endloop
  endfacet
  facet normal 0.000000e+000 0.000000e+000 1.000000e+000
    outer loop
      vertex   7.653669e-001 1.847759e+000 1.200000e+001
      vertex   1.498426e+000 3.708735e+000 1.200000e+001
      vertex   9.676876e-001 3.881183e+000 1.200000e+001
    endloop
  endfacet
  facet normal 0.000000e+000 0.000000e+000 1.000000e+000
    outer loop
      vertex   3.901806e-001 1.961571e+000 1.200000e+001
      vertex   9.676876e-001 3.881183e+000 1.200000e+001
      vertex   4.181139e-001 3.978088e+000 1.200000e+001
    endloop
  endfacet
  facet normal 0.000000e+000 0.000000e+000 1.000000e+000
    outer loop
      vertex   -3.901806e-001 1.961571e+000 1.200000e+001
      vertex   -6.945927e-001 3.939231e+000 1.200000e+001
      vertex   -1.236068e+000 3.804226e+000 1.200000e+001
    endloop
  endfacet
  facet normal 0.000000e+000 0.000000e+000 1.000000e+000
    outer loop
      vertex   -1.753485e+000 3.595176e+000 1.200000e+001
      vertex   -2.236772e+000 3.316150e+000 1.200000e+001
      vertex   -1.111140e+000 1.662939e+000 1.200000e+001
    endloop
  endfacet
  facet normal 0.000000e+000 0.000000e+000 1.000000e+000
    outer loop
      vertex   -3.392192e+000 2.119677e+000 1.200000e+001
      vertex   -3.654182e+000 1.626947e+000 1.200000e+001
      vertex   -1.847759e+000 7.653669e-001 1.200000e+001
    endloop
  endfacet
  facet normal 0.000000e+000 0.000000e+000 1.000000e+000
    outer loop
      vertex   -1.847759e+000 7.653669e-001 1.200000e+001
      vertex   -3.654182e+000 1.626947e+000 1.200000e+001
      vertex   -3.845047e+000 1.102549e+000 1.200000e+001
    endloop
  endfacet
  facet normal -0.000000e+000 0.000000e+000 1.000000e+000
    outer loop
      vertex   1.414214e+000 1.414214e+000 1.200000e+001
      vertex   1.662939e+000 1.111140e+000 1.200000e+001
      vertex   3.236068e+000 2.351141e+000 1.200000e+001
    endloop
  endfacet
  facet normal -0.000000e+000 0.000000e+000 1.000000e+000
    outer loop
      vertex   -1.224647e-016 2.000000e+000 1.200000e+001
      vertex   3.901806e-001 1.961571e+000 1.200000e+001
      vertex   4.181139e-001 3.978088e+000 1.200000e+001
    endloop
  endfacet
  facet normal 0.000000e+000 0.000000e+000 1.000000e+000
    outer loop
      vertex   -1.395980e-001 3.997563e+000 1.200000e+001
      vertex   -6.945927e-001 3.939231e+000 1.200000e+001
      vertex   -3.901806e-001 1.961571e+000 1.200000e+001
    endloop
  endfacet
  facet normal 0.000000e+000 -0.000000e+000 1.000000e+000
    outer loop
      vertex   -1.111140e+000 1.662939e+000 1.200000e+001
      vertex   -7.653669e-001 1.847759e+000 1.200000e+001
      vertex   -1.753485e+000 3.595176e+000 1.200000e+001
    endloop
  endfacet
  facet normal 0.000000e+000 0.000000e+000 1.000000e+000
    outer loop
      vertex   -3.064178e+000 2.571150e+000 1.200000e+001
      vertex   -3.392192e+000 2.119677e+000 1.200000e+001
      vertex   -1.662939e+000 1.111140e+000 1.200000e+001
    endloop
  endfacet
  facet normal 0.000000e+000 0.000000e+000 1.000000e+000
    outer loop
      vertex   -3.845047e+000 1.102549e+000 1.200000e+001
      vertex   -3.961072e+000 5.566924e-001 1.200000e+001
      vertex   -1.961571e+000 3.901806e-001 1.200000e+001
    endloop
  endfacet
  facet normal 0.000000e+000 0.000000e+000 1.000000e+000
    outer loop
      vertex   -3.961072e+000 5.566924e-001 1.200000e+001
      vertex   -4.000000e+000 -9.797174e-016 1.200000e+001
      vertex   -2.000000e+000 0.000000e+000 1.200000e+001
    endloop
  endfacet
  facet normal 0.000000e+000 0.000000e+000 1.000000e+000
    outer loop
      vertex   -3.064178e+000 -2.571150e+000 1.200000e+001
      vertex   -1.414214e+000 -1.414214e+000 1.200000e+001
      vertex   -1.662939e+000 -1.111140e+000 1.200000e+001
    endloop
  endfacet
  facet normal 0.000000e+000 0.000000e+000 1.000000e+000
    outer loop
      vertex   3.990256e+000 2.790259e-001 1.200000e+001
      vertex   3.912590e+000 8.316468e-001 1.200000e+001
      vertex   1.961571e+000 3.901806e-001 1.200000e+001
    endloop
  endfacet
  facet normal 0.000000e+000 0.000000e+000 1.000000e+000
    outer loop
      vertex   3.758770e+000 1.368081e+000 1.200000e+001
      vertex   1.847759e+000 7.653669e-001 1.200000e+001
      vertex   1.961571e+000 3.901806e-001 1.200000e+001
    endloop
  endfacet
  facet normal 0.000000e+000 0.000000e+000 1.000000e+000
    outer loop
      vertex   2.462646e+000 3.152043e+000 1.200000e+001
      vertex   2.000000e+000 3.464102e+000 1.200000e+001
      vertex   1.111140e+000 1.662939e+000 1.200000e+001
    endloop
  endfacet
  facet normal 0.000000e+000 0.000000e+000 1.000000e+000
    outer loop
      vertex   -1.236068e+000 3.804226e+000 1.200000e+001
      vertex   -1.753485e+000 3.595176e+000 1.200000e+001
      vertex   -7.653669e-001 1.847759e+000 1.200000e+001
    endloop
  endfacet
  facet normal 0.000000e+000 0.000000e+000 1.000000e+000
    outer loop
      vertex   -2.676522e+000 2.972579e+000 1.200000e+001
      vertex   -1.414214e+000 1.414214e+000 1.200000e+001
      vertex   -1.111140e+000 1.662939e+000 1.200000e+001
    endloop
  endfacet
  facet normal 0.000000e+000 0.000000e+000 1.000000e+000
    outer loop
      vertex   -1.414214e+000 1.414214e+000 1.200000e+001
      vertex   -2.676522e+000 2.972579e+000 1.200000e+001
      vertex   -3.064178e+000 2.571150e+000 1.200000e+001
    endloop
  endfacet
  facet normal 0.000000e+000 -0.000000e+000 1.000000e+000
    outer loop
      vertex   -2.000000e+000 0.000000e+000 1.200000e+001
      vertex   -1.961571e+000 3.901806e-001 1.200000e+001
      vertex   -3.961072e+000 5.566924e-001 1.200000e+001
    endloop
  endfacet
  facet normal 0.000000e+000 0.000000e+000 1.000000e+000
    outer loop
      vertex   -3.961072e+000 -5.566924e-001 1.200000e+001
      vertex   -1.961571e+000 -3.901806e-001 1.200000e+001
      vertex   -2.000000e+000 0.000000e+000 1.200000e+001
    endloop
  endfacet
  facet normal -0.000000e+000 0.000000e+000 1.000000e+000
    outer loop
      vertex   -3.845047e+000 -1.102549e+000 1.200000e+001
      vertex   -3.654182e+000 -1.626947e+000 1.200000e+001
      vertex   -1.847759e+000 -7.653669e-001 1.200000e+001
    endloop
  endfacet
  facet normal 0.000000e+000 0.000000e+000 1.000000e+000
    outer loop
      vertex   -3.392192e+000 -2.119677e+000 1.200000e+001
      vertex   -1.662939e+000 -1.111140e+000 1.200000e+001
      vertex   -1.847759e+000 -7.653669e-001 1.200000e+001
    endloop
  endfacet
  facet normal 0.000000e+000 0.000000e+000 1.000000e+000
    outer loop
      vertex   -1.662939e+000 -1.111140e+000 1.200000e+001
      vertex   -3.392192e+000 -2.119677e+000 1.200000e+001
      vertex   -3.064178e+000 -2.571150e+000 1.200000e+001
    endloop
  endfacet
  facet normal 0.000000e+000 0.000000e+000 1.000000e+000
    outer loop
      vertex   1.961571e+000 3.901806e-001 1.200000e+001
      vertex   3.912590e+000 8.316468e-001 1.200000e+001
      vertex   3.758770e+000 1.368081e+000 1.200000e+001
    endloop
  endfacet
  facet normal 0.000000e+000 0.000000e+000 1.000000e+000
    outer loop
      vertex   -3.901806e-001 1.961571e+000 1.200000e+001
      vertex   -1.224647e-016 2.000000e+000 1.200000e+001
      vertex   -1.395980e-001 3.997563e+000 1.200000e+001
    endloop
  endfacet
  facet normal 0.000000e+000 -0.000000e+000 1.000000e+000
    outer loop
      vertex   -1.662939e+000 1.111140e+000 1.200000e+001
      vertex   -1.414214e+000 1.414214e+000 1.200000e+001
      vertex   -3.064178e+000 2.571150e+000 1.200000e+001
    endloop
  endfacet
  facet normal 0.000000e+000 0.000000e+000 1.000000e+000
    outer loop
      vertex   -2.000000e+000 0.000000e+000 1.200000e+001
      vertex   -4.000000e+000 -9.797174e-016 1.200000e+001
      vertex   -3.961072e+000 -5.566924e-001 1.200000e+001
    endloop
  endfacet
  facet normal 0.000000e+000 0.000000e+000 1.000000e+000
    outer loop
      vertex   -1.961571e+000 -3.901806e-001 1.200000e+001
      vertex   -3.961072e+000 -5.566924e-001 1.200000e+001
      vertex   -3.845047e+000 -1.102549e+000 1.200000e+001
    endloop
  endfacet
  facet normal -0.000000e+000 0.000000e+000 1.000000e+000
    outer loop
      vertex   -3.064178e+000 -2.571150e+000 1.200000e+001
      vertex   -2.676522e+000 -2.972579e+000 1.200000e+001
      vertex   -1.414214e+000 -1.414214e+000 1.200000e+001
    endloop
  endfacet
  facet normal -0.000000e+000 0.000000e+000 1.000000e+000
    outer loop
      vertex   -1.236068e+000 -3.804226e+000 1.200000e+001
      vertex   -6.945927e-001 -3.939231e+000 1.200000e+001
      vertex   -3.901806e-001 -1.961571e+000 1.200000e+001
    endloop
  endfacet
  facet normal 0.000000e+000 0.000000e+000 1.000000e+000
    outer loop
      vertex   4.181139e-001 -3.978088e+000 1.200000e+001
      vertex   3.901806e-001 -1.961571e+000 1.200000e+001
      vertex   3.673940e-016 -2.000000e+000 1.200000e+001
    endloop
  endfacet
  facet normal -0.000000e+000 0.000000e+000 1.000000e+000
    outer loop
      vertex   1.662939e+000 1.111140e+000 1.200000e+001
      vertex   1.847759e+000 7.653669e-001 1.200000e+001
      vertex   3.531790e+000 1.877886e+000 1.200000e+001
    endloop
  endfacet
  facet normal 0.000000e+000 -0.000000e+000 1.000000e+000
    outer loop
      vertex   -1.847759e+000 7.653669e-001 1.200000e+001
      vertex   -1.662939e+000 1.111140e+000 1.200000e+001
      vertex   -3.392192e+000 2.119677e+000 1.200000e+001
    endloop
  endfacet
  facet normal 0.000000e+000 0.000000e+000 1.000000e+000
    outer loop
      vertex   -1.847759e+000 -7.653669e-001 1.200000e+001
      vertex   -3.654182e+000 -1.626947e+000 1.200000e+001
      vertex   -3.392192e+000 -2.119677e+000 1.200000e+001
    endloop
  endfacet
  facet normal -0.000000e+000 0.000000e+000 1.000000e+000
    outer loop
      vertex   -2.676522e+000 -2.972579e+000 1.200000e+001
      vertex   -2.236772e+000 -3.316150e+000 1.200000e+001
      vertex   -1.111140e+000 -1.662939e+000 1.200000e+001
    endloop
  endfacet
  facet normal 0.000000e+000 0.000000e+000 1.000000e+000
    outer loop
      vertex   -1.753485e+000 -3.595176e+000 1.200000e+001
      vertex   -7.653669e-001 -1.847759e+000 1.200000e+001
      vertex   -1.111140e+000 -1.662939e+000 1.200000e+001
    endloop
  endfacet
  facet normal 0.000000e+000 0.000000e+000 1.000000e+000
    outer loop
      vertex   -7.653669e-001 -1.847759e+000 1.200000e+001
      vertex   -1.753485e+000 -3.595176e+000 1.200000e+001
      vertex   -1.236068e+000 -3.804226e+000 1.200000e+001
    endloop
  endfacet
  facet normal 0.000000e+000 -0.000000e+000 1.000000e+000
    outer loop
      vertex   -1.395980e-001 -3.997563e+000 1.200000e+001
      vertex   3.673940e-016 -2.000000e+000 1.200000e+001
      vertex   -3.901806e-001 -1.961571e+000 1.200000e+001
    endloop
  endfacet
  facet normal 0.000000e+000 0.000000e+000 1.000000e+000
    outer loop
      vertex   3.673940e-016 -2.000000e+000 1.200000e+001
      vertex   -1.395980e-001 -3.997563e+000 1.200000e+001
      vertex   4.181139e-001 -3.978088e+000 1.200000e+001
    endloop
  endfacet
  facet normal 0.000000e+000 0.000000e+000 1.000000e+000
    outer loop
      vertex   -1.111140e+000 1.662939e+000 1.200000e+001
      vertex   -2.236772e+000 3.316150e+000 1.200000e+001
      vertex   -2.676522e+000 2.972579e+000 1.200000e+001
    endloop
  endfacet
  facet normal 0.000000e+000 0.000000e+000 1.000000e+000
    outer loop
      vertex   -1.111140e+000 -1.662939e+000 1.200000e+001
      vertex   -1.414214e+000 -1.414214e+000 1.200000e+001
      vertex   -2.676522e+000 -2.972579e+000 1.200000e+001
    endloop
  endfacet
  facet normal 0.000000e+000 0.000000e+000 1.000000e+000
    outer loop
      vertex   -3.901806e-001 -1.961571e+000 1.200000e+001
      vertex   -7.653669e-001 -1.847759e+000 1.200000e+001
      vertex   -1.236068e+000 -3.804226e+000 1.200000e+001
    endloop
  endfacet
  facet normal 0.000000e+000 -0.000000e+000 1.000000e+000
    outer loop
      vertex   4.181139e-001 -3.978088e+000 1.200000e+001
      vertex   9.676876e-001 -3.881183e+000 1.200000e+001
      vertex   3.901806e-001 -1.961571e+000 1.200000e+001
    endloop
  endfacet
  facet normal 0.000000e+000 -0.000000e+000 1.000000e+000
    outer loop
      vertex   9.676876e-001 -3.881183e+000 1.200000e+001
      vertex   1.498426e+000 -3.708735e+000 1.200000e+001
      vertex   7.653669e-001 -1.847759e+000 1.200000e+001
    endloop
  endfacet
  facet normal 0.000000e+000 0.000000e+000 1.000000e+000
    outer loop
      vertex   2.000000e+000 -3.464102e+000 1.200000e+001
      vertex   1.111140e+000 -1.662939e+000 1.200000e+001
      vertex   7.653669e-001 -1.847759e+000 1.200000e+001
    endloop
  endfacet
  facet normal 0.000000e+000 -0.000000e+000 1.000000e+000
    outer loop
      vertex   2.462646e+000 -3.152043e+000 1.200000e+001
      vertex   2.877359e+000 -2.778633e+000 1.200000e+001
      vertex   1.414214e+000 -1.414214e+000 1.200000e+001
    endloop
  endfacet
  facet normal 0.000000e+000 0.000000e+000 1.000000e+000
    outer loop
      vertex   3.531790e+000 -1.877886e+000 1.200000e+001
      vertex   1.847759e+000 -7.653669e-001 1.200000e+001
      vertex   1.662939e+000 -1.111140e+000 1.200000e+001
    endloop
  endfacet
  facet normal 0.000000e+000 0.000000e+000 1.000000e+000
    outer loop
      vertex   -1.847759e+000 -7.653669e-001 1.200000e+001
      vertex   -1.961571e+000 -3.901806e-001 1.200000e+001
      vertex   -3.845047e+000 -1.102549e+000 1.200000e+001
    endloop
  endfacet
  facet normal 0.000000e+000 0.000000e+000 1.000000e+000
    outer loop
      vertex   -3.901806e-001 -1.961571e+000 1.200000e+001
      vertex   -6.945927e-001 -3.939231e+000 1.200000e+001
      vertex   -1.395980e-001 -3.997563e+000 1.200000e+001
    endloop
  endfacet
  facet normal 0.000000e+000 0.000000e+000 1.000000e+000
    outer loop
      vertex   7.653669e-001 -1.847759e+000 1.200000e+001
      vertex   1.498426e+000 -3.708735e+000 1.200000e+001
      vertex   2.000000e+000 -3.464102e+000 1.200000e+001
    endloop
  endfacet
  facet normal 0.000000e+000 0.000000e+000 1.000000e+000
    outer loop
      vertex   1.111140e+000 -1.662939e+000 1.200000e+001
      vertex   2.000000e+000 -3.464102e+000 1.200000e+001
      vertex   2.462646e+000 -3.152043e+000 1.200000e+001
    endloop
  endfacet
  facet normal 0.000000e+000 0.000000e+000 1.000000e+000
    outer loop
      vertex   1.662939e+000 -1.111140e+000 1.200000e+001
      vertex   3.236068e+000 -2.351141e+000 1.200000e+001
      vertex   3.531790e+000 -1.877886e+000 1.200000e+001
    endloop
  endfacet
  facet normal 0.000000e+000 -0.000000e+000 1.000000e+000
    outer loop
      vertex   3.758770e+000 -1.368081e+000 1.200000e+001
      vertex   3.912590e+000 -8.316468e-001 1.200000e+001
      vertex   1.961571e+000 -3.901806e-001 1.200000e+001
    endloop
  endfacet
  facet normal 0.000000e+000 0.000000e+000 1.000000e+000
    outer loop
      vertex   -1.111140e+000 -1.662939e+000 1.200000e+001
      vertex   -2.236772e+000 -3.316150e+000 1.200000e+001
      vertex   -1.753485e+000 -3.595176e+000 1.200000e+001
    endloop
  endfacet
  facet normal 0.000000e+000 0.000000e+000 1.000000e+000
    outer loop
      vertex   1.414214e+000 -1.414214e+000 1.200000e+001
      vertex   1.111140e+000 -1.662939e+000 1.200000e+001
      vertex   2.462646e+000 -3.152043e+000 1.200000e+001
    endloop
  endfacet
  facet normal 0.000000e+000 0.000000e+000 1.000000e+000
    outer loop
      vertex   3.236068e+000 -2.351141e+000 1.200000e+001
      vertex   1.662939e+000 -1.111140e+000 1.200000e+001
      vertex   1.414214e+000 -1.414214e+000 1.200000e+001
    endloop
  endfacet
  facet normal 0.000000e+000 0.000000e+000 1.000000e+000
    outer loop
      vertex   1.961571e+000 -3.901806e-001 1.200000e+001
      vertex   1.847759e+000 -7.653669e-001 1.200000e+001
      vertex   3.758770e+000 -1.368081e+000 1.200000e+001
    endloop
  endfacet
  facet normal 0.000000e+000 0.000000e+000 1.000000e+000
    outer loop
      vertex   7.653669e-001 -1.847759e+000 1.200000e+001
      vertex   3.901806e-001 -1.961571e+000 1.200000e+001
      vertex   9.676876e-001 -3.881183e+000 1.200000e+001
    endloop
  endfacet
  facet normal 0.000000e+000 -0.000000e+000 1.000000e+000
    outer loop
      vertex   3.531790e+000 -1.877886e+000 1.200000e+001
      vertex   3.758770e+000 -1.368081e+000 1.200000e+001
      vertex   1.847759e+000 -7.653669e-001 1.200000e+001
    endloop
  endfacet
  facet normal 0.000000e+000 0.000000e+000 1.000000e+000
    outer loop
      vertex   3.990256e+000 -2.790259e-001 1.200000e+001
      vertex   2.000000e+000 2.449294e-016 1.200000e+001
      vertex   1.961571e+000 -3.901806e-001 1.200000e+001
    endloop
  endfacet
  facet normal 0.000000e+000 0.000000e+000 1.000000e+000
    outer loop
      vertex   1.414214e+000 -1.414214e+000 1.200000e+001
      vertex   2.877359e+000 -2.778633e+000 1.200000e+001
      vertex   3.236068e+000 -2.351141e+000 1.200000e+001
    endloop
  endfacet
  facet normal -0.000000e+000 0.000000e+000 1.000000e+000
    outer loop
      vertex   1.961571e+000 -3.901806e-001 1.200000e+001
      vertex   3.912590e+000 -8.316468e-001 1.200000e+001
      vertex   3.990256e+000 -2.790259e-001 1.200000e+001
    endloop
  endfacet
  facet normal 0.000000e+000 0.000000e+000 1.000000e+000
    outer loop
      vertex   3.990256e+000 -2.790259e-001 1.200000e+001
      vertex   3.990256e+000 2.790259e-001 1.200000e+001
      vertex   2.000000e+000 2.449294e-016 1.200000e+001
    endloop
  endfacet
  facet normal 0.000000e+000 0.000000e+000 1.000000e+000
    outer loop
      vertex   1.961571e+000 3.901806e-001 1.200000e+001
      vertex   2.000000e+000 2.449294e-016 1.200000e+001
      vertex   3.990256e+000 2.790259e-001 1.200000e+001
    endloop
  endfacet
  facet normal -9.975641e-001 6.975647e-002 5.695136e-018
    outer loop
      vertex   -4.000000e+000 0.000000e+000 0.000000e+000
      vertex   -4.000000e+000 -9.797174e-016 1.200000e+001
      vertex   -3.961072e+000 5.566924e-001 1.200000e+001
    endloop
  endfacet
  facet normal -9.781476e-001 2.079117e-001 0.000000e+000
    outer loop
      vertex   -3.961072e+000 5.566924e-001 0.000000e+000
      vertex   -3.961072e+000 5.566924e-001 1.200000e+001
      vertex   -3.845047e+000 1.102549e+000 1.200000e+001
    endloop
  endfacet
  facet normal -9.396926e-001 3.420201e-001 0.000000e+000
    outer loop
      vertex   -3.845047e+000 1.102549e+000 0.000000e+000
      vertex   -3.845047e+000 1.102549e+000 1.200000e+001
      vertex   -3.654182e+000 1.626947e+000 1.200000e+001
    endloop
  endfacet
  facet normal -8.829476e-001 4.694716e-001 0.000000e+000
    outer loop
      vertex   -3.654182e+000 1.626947e+000 0.000000e+000
      vertex   -3.654182e+000 1.626947e+000 1.200000e+001
      vertex   -3.392192e+000 2.119677e+000 1.200000e+001
    endloop
  endfacet
  facet normal -8.090170e-001 5.877853e-001 0.000000e+000
    outer loop
      vertex   -3.392192e+000 2.119677e+000 0.000000e+000
      vertex   -3.392192e+000 2.119677e+000 1.200000e+001
      vertex   -3.064178e+000 2.571150e+000 1.200000e+001
    endloop
  endfacet
  facet normal -7.193398e-001 6.946584e-001 0.000000e+000
    outer loop
      vertex   -3.064178e+000 2.571150e+000 0.000000e+000
      vertex   -3.064178e+000 2.571150e+000 1.200000e+001
      vertex   -2.676522e+000 2.972579e+000 1.200000e+001
    endloop
  endfacet
  facet normal -6.156615e-001 7.880108e-001 0.000000e+000
    outer loop
      vertex   -2.676522e+000 2.972579e+000 0.000000e+000
      vertex   -2.676522e+000 2.972579e+000 1.200000e+001
      vertex   -2.236772e+000 3.316150e+000 1.200000e+001
    endloop
  endfacet
  facet normal -5.000000e-001 8.660254e-001 0.000000e+000
    outer loop
      vertex   -2.236772e+000 3.316150e+000 0.000000e+000
      vertex   -2.236772e+000 3.316150e+000 1.200000e+001
      vertex   -1.753485e+000 3.595176e+000 1.200000e+001
    endloop
  endfacet
  facet normal -3.746066e-001 9.271839e-001 0.000000e+000
    outer loop
      vertex   -1.753485e+000 3.595176e+000 0.000000e+000
      vertex   -1.753485e+000 3.595176e+000 1.200000e+001
      vertex   -1.236068e+000 3.804226e+000 1.200000e+001
    endloop
  endfacet
  facet normal -2.419219e-001 9.702957e-001 0.000000e+000
    outer loop
      vertex   -1.236068e+000 3.804226e+000 0.000000e+000
      vertex   -1.236068e+000 3.804226e+000 1.200000e+001
      vertex   -6.945927e-001 3.939231e+000 1.200000e+001
    endloop
  endfacet
  facet normal -1.045285e-001 9.945219e-001 0.000000e+000
    outer loop
      vertex   -6.945927e-001 3.939231e+000 0.000000e+000
      vertex   -6.945927e-001 3.939231e+000 1.200000e+001
      vertex   -1.395980e-001 3.997563e+000 1.200000e+001
    endloop
  endfacet
  facet normal 3.489950e-002 9.993908e-001 -0.000000e+000
    outer loop
      vertex   -1.395980e-001 3.997563e+000 0.000000e+000
      vertex   -1.395980e-001 3.997563e+000 1.200000e+001
      vertex   4.181139e-001 3.978088e+000 1.200000e+001
    endloop
  endfacet
  facet normal 1.736482e-001 9.848078e-001 -0.000000e+000
    outer loop
      vertex   4.181139e-001 3.978088e+000 0.000000e+000
      vertex   4.181139e-001 3.978088e+000 1.200000e+001
      vertex   9.676876e-001 3.881183e+000 1.200000e+001
    endloop
  endfacet
  facet normal 3.090170e-001 9.510565e-001 -0.000000e+000
    outer loop
      vertex   9.676876e-001 3.881183e+000 0.000000e+000
      vertex   9.676876e-001 3.881183e+000 1.200000e+001
      vertex   1.498426e+000 3.708735e+000 1.200000e+001
    endloop
  endfacet
  facet normal 4.383711e-001 8.987940e-001 -0.000000e+000
    outer loop
      vertex   1.498426e+000 3.708735e+000 0.000000e+000
      vertex   1.498426e+000 3.708735e+000 1.200000e+001
      vertex   2.000000e+000 3.464102e+000 1.200000e+001
    endloop
  endfacet
  facet normal 5.591929e-001 8.290376e-001 -0.000000e+000
    outer loop
      vertex   2.000000e+000 3.464102e+000 0.000000e+000
      vertex   2.000000e+000 3.464102e+000 1.200000e+001
      vertex   2.462646e+000 3.152043e+000 1.200000e+001
    endloop
  endfacet
  facet normal 6.691306e-001 7.431448e-001 -0.000000e+000
    outer loop
      vertex   2.462646e+000 3.152043e+000 0.000000e+000
      vertex   2.462646e+000 3.152043e+000 1.200000e+001
      vertex   2.877359e+000 2.778633e+000 1.200000e+001
    endloop
  endfacet
  facet normal 7.660444e-001 6.427876e-001 -0.000000e+000
    outer loop
      vertex   2.877359e+000 2.778633e+000 0.000000e+000
      vertex   2.877359e+000 2.778633e+000 1.200000e+001
      vertex   3.236068e+000 2.351141e+000 1.200000e+001
    endloop
  endfacet
  facet normal 8.480481e-001 5.299193e-001 -0.000000e+000
    outer loop
      vertex   3.236068e+000 2.351141e+000 0.000000e+000
      vertex   3.236068e+000 2.351141e+000 1.200000e+001
      vertex   3.531790e+000 1.877886e+000 1.200000e+001
    endloop
  endfacet
  facet normal 9.135455e-001 4.067366e-001 -0.000000e+000
    outer loop
      vertex   3.531790e+000 1.877886e+000 0.000000e+000
      vertex   3.531790e+000 1.877886e+000 1.200000e+001
      vertex   3.758770e+000 1.368081e+000 1.200000e+001
    endloop
  endfacet
  facet normal 9.612617e-001 2.756374e-001 -0.000000e+000
    outer loop
      vertex   3.758770e+000 1.368081e+000 0.000000e+000
      vertex   3.758770e+000 1.368081e+000 1.200000e+001
      vertex   3.912590e+000 8.316468e-001 1.200000e+001
    endloop
  endfacet
  facet normal 9.902681e-001 1.391731e-001 -0.000000e+000
    outer loop
      vertex   3.912590e+000 8.316468e-001 0.000000e+000
      vertex   3.912590e+000 8.316468e-001 1.200000e+001
      vertex   3.990256e+000 2.790259e-001 1.200000e+001
    endloop
  endfacet
  facet normal 1.000000e+000 1.554267e-015 -0.000000e+000
    outer loop
      vertex   3.990256e+000 2.790259e-001 0.000000e+000
      vertex   3.990256e+000 2.790259e-001 1.200000e+001
      vertex   3.990256e+000 -2.790259e-001 1.200000e+001
    endloop
  endfacet
  facet normal 9.902681e-001 -1.391731e-001 0.000000e+000
    outer loop
      vertex   3.990256e+000 -2.790259e-001 0.000000e+000
      vertex   3.990256e+000 -2.790259e-001 1.200000e+001
      vertex   3.912590e+000 -8.316468e-001 1.200000e+001
    endloop
  endfacet
  facet normal 9.612617e-001 -2.756374e-001 0.000000e+000
    outer loop
      vertex   3.912590e+000 -8.316468e-001 0.000000e+000
      vertex   3.912590e+000 -8.316468e-001 1.200000e+001
      vertex   3.758770e+000 -1.368081e+000 1.200000e+001
    endloop
  endfacet
  facet normal 9.135455e-001 -4.067366e-001 0.000000e+000
    outer loop
      vertex   3.758770e+000 -1.368081e+000 0.000000e+000
      vertex   3.758770e+000 -1.368081e+000 1.200000e+001
      vertex   3.531790e+000 -1.877886e+000 1.200000e+001
    endloop
  endfacet
  facet normal 8.480481e-001 -5.299193e-001 0.000000e+000
    outer loop
      vertex   3.531790e+000 -1.877886e+000 0.000000e+000
      vertex   3.531790e+000 -1.877886e+000 1.200000e+001
      vertex   3.236068e+000 -2.351141e+000 1.200000e+001
    endloop
  endfacet
  facet normal 7.660444e-001 -6.427876e-001 0.000000e+000
    outer loop
      vertex   3.236068e+000 -2.351141e+000 0.000000e+000
      vertex   3.236068e+000 -2.351141e+000 1.200000e+001
      vertex   2.877359e+000 -2.778633e+000 1.200000e+001
    endloop
  endfacet
  facet normal 6.691306e-001 -7.431448e-001 0.000000e+000
    outer loop
      vertex   2.877359e+000 -2.778633e+000 0.000000e+000
      vertex   2.877359e+000 -2.778633e+000 1.200000e+001
      vertex   2.462646e+000 -3.152043e+000 1.200000e+001
    endloop
  endfacet
  facet normal 5.591929e-001 -8.290376e-001 0.000000e+000
    outer loop
      vertex   2.462646e+000 -3.152043e+000 0.000000e+000
      vertex   2.462646e+000 -3.152043e+000 1.200000e+001
      vertex   2.000000e+000 -3.464102e+000 1.200000e+001
    endloop
  endfacet
  facet normal 4.383711e-001 -8.987940e-001 0.000000e+000
    outer loop
      vertex   2.000000e+000 -3.464102e+000 0.000000e+000
      vertex   2.000000e+000 -3.464102e+000 1.200000e+001
      vertex   1.498426e+000 -3.708735e+000 1.200000e+001
    endloop
  endfacet
  facet normal 3.090170e-001 -9.510565e-001 0.000000e+000
    outer loop
      vertex   1.498426e+000 -3.708735e+000 0.000000e+000
      vertex   1.498426e+000 -3.708735e+000 1.200000e+001
      vertex   9.676876e-001 -3.881183e+000 1.200000e+001
    endloop
  endfacet
  facet normal 1.736482e-001 -9.848078e-001 0.000000e+000
    outer loop
      vertex   9.676876e-001 -3.881183e+000 0.000000e+000
      vertex   9.676876e-001 -3.881183e+000 1.200000e+001
      vertex   4.181139e-001 -3.978088e+000 1.200000e+001
    endloop
  endfacet
  facet normal 3.489950e-002 -9.993908e-001 0.000000e+000
    outer loop
      vertex   4.181139e-001 -3.978088e+000 0.000000e+000
      vertex   4.181139e-001 -3.978088e+000 1.200000e+001
      vertex   -1.395980e-001 -3.997563e+000 1.200000e+001
    endloop
  endfacet
  facet normal -1.045285e-001 -9.945219e-001 0.000000e+000
    outer loop
      vertex   -1.395980e-001 -3.997563e+000 0.000000e+000
      vertex   -1.395980e-001 -3.997563e+000 1.200000e+001
      vertex   -6.945927e-001 -3.939231e+000 1.200000e+001
    endloop
  endfacet
  facet normal -2.419219e-001 -9.702957e-001 0.000000e+000
    outer loop
      vertex   -6.945927e-001 -3.939231e+000 0.000000e+000
      vertex   -6.945927e-001 -3.939231e+000 1.200000e+001
      vertex   -1.236068e+000 -3.804226e+000 1.200000e+001
    endloop
  endfacet
  facet normal -3.746066e-001 -9.271839e-001 0.000000e+000
    outer loop
      vertex   -1.236068e+000 -3.804226e+000 0.000000e+000
      vertex   -1.236068e+000 -3.804226e+000 1.200000e+001
      vertex   -1.753485e+000 -3.595176e+000 1.200000e+001
    endloop
  endfacet
  facet normal -5.000000e-001 -8.660254e-001 0.000000e+000
    outer loop
      vertex   -1.753485e+000 -3.595176e+000 0.000000e+000
      vertex   -1.753485e+000 -3.595176e+000 1.200000e+001
      vertex   -2.236772e+000 -3.316150e+000 1.200000e+001
    endloop
  endfacet
  facet normal -6.156615e-001 -7.880108e-001 0.000000e+000
    outer loop
      vertex   -2.236772e+000 -3.316150e+000 0.000000e+000
      vertex   -2.236772e+000 -3.316150e+000 1.200000e+001
      vertex   -2.676522e+000 -2.972579e+000 1.200000e+001
    endloop
  endfacet
  facet normal -7.193398e-001 -6.946584e-001 0.000000e+000
    outer loop
      vertex   -2.676522e+000 -2.972579e+000 0.000000e+000
      vertex   -2.676522e+000 -2.972579e+000 1.200000e+001
      vertex   -3.064178e+000 -2.571150e+000 1.200000e+001
    endloop
  endfacet
  facet normal -8.090170e-001 -5.877853e-001 0.000000e+000
    outer loop
      vertex   -3.064178e+000 -2.571150e+000 0.000000e+000
      vertex   -3.064178e+000 -2.571150e+000 1.200000e+001
      vertex   -3.392192e+000 -2.119677e+000 1.200000e+001
    endloop
  endfacet
  facet normal -8.829476e-001 -4.694716e-001 0.000000e+000
    outer loop
      vertex   -3.392192e+000 -2.119677e+000 0.000000e+000
      vertex   -3.392192e+000 -2.119677e+000 1.200000e+001
      vertex   -3.654182e+000 -1.626947e+000 1.200000e+001
    endloop
  endfacet
  facet normal -9.396926e-001 -3.420201e-001 0.000000e+000
    outer loop
      vertex   -3.654182e+000 -1.626947e+000 0.000000e+000
      vertex   -3.654182e+000 -1.626947e+000 1.200000e+001
      vertex   -3.845047e+000 -1.102549e+000 1.200000e+001
    endloop
  endfacet
  facet normal -9.781476e-001 -2.079117e-001 0.000000e+000
    outer loop
      vertex   -3.845047e+000 -1.102549e+000 0.000000e+000
      vertex   -3.845047e+000 -1.102549e+000 1.200000e+001
      vertex   -3.961072e+000 -5.566924e-001 1.200000e+001
    endloop
  endfacet
  facet normal -9.975641e-001 -6.975647e-002 0.000000e+000
    outer loop
      vertex   -3.961072e+000 -5.566924e-001 0.000000e+000
      vertex   -3.961072e+000 -5.566924e-001 1.200000e+001
      vertex   -4.000000e+000 -9.797174e-016 1.200000e+001
    endloop
  endfacet
  facet normal -9.975641e-001 -6.975647e-002 -5.695136e-018
    outer loop
      vertex   -4.000000e+000 -9.797174e-016 1.200000e+001
      vertex   -4.000000e+000 0.000000e+000 0.000000e+000
      vertex   -3.961072e+000 -5.566924e-001 0.000000e+000
    endloop
  endfacet
  facet normal -9.781476e-001 -2.079117e-001 -0.000000e+000
    outer loop
      vertex   -3.961072e+000 -5.566924e-001 1.200000e+001
      vertex   -3.961072e+000 -5.566924e-001 0.000000e+000
      vertex   -3.845047e+000 -1.102549e+000 0.000000e+000
    endloop
  endfacet
  facet normal -9.396926e-001 -3.420201e-001 -0.000000e+000
    outer loop
      vertex   -3.845047e+000 -1.102549e+000 1.200000e+001
      vertex   -3.845047e+000 -1.102549e+000 0.000000e+000
      vertex   -3.654182e+000 -1.626947e+000 0.000000e+000
    endloop
  endfacet
  facet normal -8.829476e-001 -4.694716e-001 -0.000000e+000
    outer loop
      vertex   -3.654182e+000 -1.626947e+000 1.200000e+001
      vertex   -3.654182e+000 -1.626947e+000 0.000000e+000
      vertex   -3.392192e+000 -2.119677e+000 0.000000e+000
    endloop
  endfacet
  facet normal -8.090170e-001 -5.877853e-001 -0.000000e+000
    outer loop
      vertex   -3.392192e+000 -2.119677e+000 1.200000e+001
      vertex   -3.392192e+000 -2.119677e+000 0.000000e+000
      vertex   -3.064178e+000 -2.571150e+000 0.000000e+000
    endloop
  endfacet
  facet normal -7.193398e-001 -6.946584e-001 -0.000000e+000
    outer loop
      vertex   -3.064178e+000 -2.571150e+000 1.200000e+001
      vertex   -3.064178e+000 -2.571150e+000 0.000000e+000
      vertex   -2.676522e+000 -2.972579e+000 0.000000e+000
    endloop
  endfacet
  facet normal -6.156615e-001 -7.880108e-001 -0.000000e+000
    outer loop
      vertex   -2.676522e+000 -2.972579e+000 1.200000e+001
      vertex   -2.676522e+000 -2.972579e+000 0.000000e+000
      vertex   -2.236772e+000 -3.316150e+000 0.000000e+000
    endloop
  endfacet
  facet normal -5.000000e-001 -8.660254e-001 -0.000000e+000
    outer loop
      vertex   -2.236772e+000 -3.316150e+000 1.200000e+001
      vertex   -2.236772e+000 -3.316150e+000 0.000000e+000
      vertex   -1.753485e+000 -3.595176e+000 0.000000e+000
    endloop
  endfacet
  facet normal -3.746066e-001 -9.271839e-001 -0.000000e+000
    outer loop
      vertex   -1.753485e+000 -3.595176e+000 1.200000e+001
      vertex   -1.753485e+000 -3.595176e+000 0.000000e+000
      vertex   -1.236068e+000 -3.804226e+000 0.000000e+000
    endloop
  endfacet
  facet normal -2.419219e-001 -9.702957e-001 -0.000000e+000
    outer loop
      vertex   -1.236068e+000 -3.804226e+000 1.200000e+001
      vertex   -1.236068e+000 -3.804226e+000 0.000000e+000
      vertex   -6.945927e-001 -3.939231e+000 0.000000e+000
    endloop
  endfacet
  facet normal -1.045285e-001 -9.945219e-001 -0.000000e+000
    outer loop
      vertex   -6.945927e-001 -3.939231e+000 1.200000e+001
      vertex   -6.945927e-001 -3.939231e+000 0.000000e+000
      vertex   -1.395980e-001 -3.997563e+000 0.000000e+000
    endloop
  endfacet
  facet normal 3.489950e-002 -9.993908e-001 0.000000e+000
    outer loop
      vertex   -1.395980e-001 -3.997563e+000 1.200000e+001
      vertex   -1.395980e-001 -3.997563e+000 0.000000e+000
      vertex   4.181139e-001 -3.978088e+000 0.000000e+000
    endloop
  endfacet
  facet normal 1.736482e-001 -9.848078e-001 0.000000e+000
    outer loop
      vertex   4.181139e-001 -3.978088e+000 1.200000e+001
      vertex   4.181139e-001 -3.978088e+000 0.000000e+000
      vertex   9.676876e-001 -3.881183e+000 0.000000e+000
    endloop
  endfacet
  facet normal 3.090170e-001 -9.510565e-001 0.000000e+000
    outer loop
      vertex   9.676876e-001 -3.881183e+000 1.200000e+001
      vertex   9.676876e-001 -3.881183e+000 0.000000e+000
      vertex   1.498426e+000 -3.708735e+000 0.000000e+000
    endloop
  endfacet
  facet normal 4.383711e-001 -8.987940e-001 0.000000e+000
    outer loop
      vertex   1.498426e+000 -3.708735e+000 1.200000e+001
      vertex   1.498426e+000 -3.708735e+000 0.000000e+000
      vertex   2.000000e+000 -3.464102e+000 0.000000e+000
    endloop
  endfacet
  facet normal 5.591929e-001 -8.290376e-001 0.000000e+000
    outer loop
      vertex   2.000000e+000 -3.464102e+000 1.200000e+001
      vertex   2.000000e+000 -3.464102e+000 0.000000e+000
      vertex   2.462646e+000 -3.152043e+000 0.000000e+000
    endloop
  endfacet
  facet normal 6.691306e-001 -7.431448e-001 0.000000e+000
    outer loop
      vertex   2.462646e+000 -3.152043e+000 1.200000e+001
      vertex   2.462646e+000 -3.152043e+000 0.000000e+000
      vertex   2.877359e+000 -2.778633e+000 0.000000e+000
    endloop
  endfacet
  facet normal 7.660444e-001 -6.427876e-001 0.000000e+000
    outer loop
      vertex   2.877359e+000 -2.778633e+000 1.200000e+001
      vertex   2.877359e+000 -2.778633e+000 0.000000e+000
      vertex   3.236068e+000 -2.351141e+000 0.000000e+000
    endloop
  endfacet
  facet normal 8.480481e-001 -5.299193e-001 0.000000e+000
    outer loop
      vertex   3.236068e+000 -2.351141e+000 1.200000e+001
      vertex   3.236068e+000 -2.351141e+000 0.000000e+000
      vertex   3.531790e+000 -1.877886e+000 0.000000e+000
    endloop
  endfacet
  facet normal 9.135455e-001 -4.067366e-001 0.000000e+000
    outer loop
      vertex   3.531790e+000 -1.877886e+000 1.200000e+001
      vertex   3.531790e+000 -1.877886e+000 0.000000e+000
      vertex   3.758770e+000 -1.368081e+000 0.000000e+000
    endloop
  endfacet
  facet normal 9.612617e-001 -2.756374e-001 0.000000e+000
    outer loop
      vertex   3.758770e+000 -1.368081e+000 1.200000e+001
      vertex   3.758770e+000 -1.368081e+000 0.000000e+000
      vertex   3.912590e+000 -8.316468e-001 0.000000e+000
    endloop
  endfacet
  facet normal 9.902681e-001 -1.391731e-001 0.000000e+000
    outer loop
      vertex   3.912590e+000 -8.316468e-001 1.200000e+001
      vertex   3.912590e+000 -8.316468e-001 0.000000e+000
      vertex   3.990256e+000 -2.790259e-001 0.000000e+000
    endloop
  endfacet
  facet normal 1.000000e+000 1.554267e-015 0.000000e+000
    outer loop
      vertex   3.990256e+000 -2.790259e-001 1.200000e+001
      vertex   3.990256e+000 -2.790259e-001 0.000000e+000
      vertex   3.990256e+000 2.790259e-001 0.000000e+000
    endloop
  endfacet
  facet normal 9.902681e-001 1.391731e-001 0.000000e+000
    outer loop
      vertex   3.990256e+000 2.790259e-001 1.200000e+001
      vertex   3.990256e+000 2.790259e-001 0.000000e+000
      vertex   3.912590e+000 8.316468e-001 0.000000e+000
    endloop
  endfacet
  facet normal 9.612617e-001 2.756374e-001 0.000000e+000
    outer loop
      vertex   3.912590e+000 8.316468e-001 1.200000e+001
      vertex   3.912590e+000 8.316468e-001 0.000000e+000
      vertex   3.758770e+000 1.368081e+000 0.000000e+000
    endloop
  endfacet
  facet normal 9.135455e-001 4.067366e-001 0.000000e+000
    outer loop
      vertex   3.758770e+000 1.368081e+000 1.200000e+001
      vertex   3.758770e+000 1.368081e+000 0.000000e+000
      vertex   3.531790e+000 1.877886e+000 0.000000e+000
    endloop
  endfacet
  facet normal 8.480481e-001 5.299193e-001 0.000000e+000
    outer loop
      vertex   3.531790e+000 1.877886e+000 1.200000e+001
      vertex   3.531790e+000 1.877886e+000 0.000000e+000
      vertex   3.236068e+000 2.351141e+000 0.000000e+000
    endloop
  endfacet
  facet normal 7.660444e-001 6.427876e-001 0.000000e+000
    outer loop
      vertex   3.236068e+000 2.351141e+000 1.200000e+001
      vertex   3.236068e+000 2.351141e+000 0.000000e+000
      vertex   2.877359e+000 2.778633e+000 0.000000e+000
    endloop
  endfacet
  facet normal 6.691306e-001 7.431448e-001 0.000000e+000
    outer loop
      vertex   2.877359e+000 2.778633e+000 1.200000e+001
      vertex   2.877359e+000 2.778633e+000 0.000000e+000
      vertex   2.462646e+000 3.152043e+000 0.000000e+000
    endloop
  endfacet
  facet normal 5.591929e-001 8.290376e-001 0.000000e+000
    outer loop
      vertex   2.462646e+000 3.152043e+000 1.200000e+001
      vertex   2.462646e+000 3.152043e+000 0.000000e+000
      vertex   2.000000e+000 3.464102e+000 0.000000e+000
    endloop
  endfacet
  facet normal 4.383711e-001 8.987940e-001 0.000000e+000
    outer loop
      vertex   2.000000e+000 3.464102e+000 1.200000e+001
      vertex   2.000000e+000 3.464102e+000 0.000000e+000
      vertex   1.498426e+000 3.708735e+000 0.000000e+000
    endloop
  endfacet
  facet normal 3.090170e-001 9.510565e-001 0.000000e+000
    outer loop
      vertex   1.498426e+000 3.708735e+000 1.200000e+001
      vertex   1.498426e+000 3.708735e+000 0.000000e+000
      vertex   9.676876e-001 3.881183e+000 0.000000e+000
    endloop
  endfacet
  facet normal 1.736482e-001 9.848078e-001 0.000000e+000
    outer loop
      vertex   9.676876e-001 3.881183e+000 1.200000e+001
      vertex   9.676876e-001 3.881183e+000 0.000000e+000
      vertex   4.181139e-001 3.978088e+000 0.000000e+000
    endloop
  endfacet
  facet normal 3.489950e-002 9.993908e-001 0.000000e+000
    outer loop
      vertex   4.181139e-001 3.978088e+000 1.200000e+001
      vertex   4.181139e-001 3.978088e+000 0.000000e+000
      vertex   -1.395980e-001 3.997563e+000 0.000000e+000
    endloop
  endfacet
  facet normal -1.045285e-001 9.945219e-001 0.000000e+000
    outer loop
      vertex   -1.395980e-001 3.997563e+000 1.200000e+001
      vertex   -1.395980e-001 3.997563e+000 0.000000e+000
      vertex   -6.945927e-001 3.939231e+000 0.000000e+000
    endloop
  endfacet
  facet normal -2.419219e-001 9.702957e-001 0.000000e+000
    outer loop
      vertex   -6.945927e-001 3.939231e+000 1.200000e+001
      vertex   -6.945927e-001 3.939231e+000 0.000000e+000
      vertex   -1.236068e+000 3.804226e+000 0.000000e+000
    endloop
  endfacet
  facet normal -3.746066e-001 9.271839e-001 0.000000e+000
    outer loop
      vertex   -1.236068e+000 3.804226e+000 1.200000e+001
      vertex   -1.236068e+000 3.804226e+000 0.000000e+000
      vertex   -1.753485e+000 3.595176e+000 0.000000e+000
    endloop
  endfacet
  facet normal -5.000000e-001 8.660254e-001 0.000000e+000
    outer loop
      vertex   -1.753485e+000 3.595176e+000 1.200000e+001
      vertex   -1.753485e+000 3.595176e+000 0.000000e+000
      vertex   -2.236772e+000 3.316150e+000 0.000000e+000
    endloop
  endfacet
  facet normal -6.156615e-001 7.880108e-001 0.000000e+000
    outer loop
      vertex   -2.236772e+000 3.316150e+000 1.200000e+001
      vertex   -2.236772e+000 3.316150e+000 0.000000e+000
      vertex   -2.676522e+000 2.972579e+000 0.000000e+000
    endloop
  endfacet
  facet normal -7.193398e-001 6.946584e-001 0.000000e+000
    outer loop
      vertex   -2.676522e+000 2.972579e+000 1.200000e+001
      vertex   -2.676522e+000 2.972579e+000 0.000000e+000
      vertex   -3.064178e+000 2.571150e+000 0.000000e+000
    endloop
  endfacet
  facet normal -8.090170e-001 5.877853e-001 0.000000e+000
    outer loop
      vertex   -3.064178e+000 2.571150e+000 1.200000e+001
      vertex   -3.064178e+000 2.571150e+000 0.000000e+000
      vertex   -3.392192e+000 2.119677e+000 0.000000e+000
    endloop
  endfacet
  facet normal -8.829476e-001 4.694716e-001 0.000000e+000
    outer loop
      vertex   -3.392192e+000 2.119677e+000 1.200000e+001
      vertex   -3.392192e+000 2.119677e+000 0.000000e+000
      vertex   -3.654182e+000 1.626947e+000 0.000000e+000
    endloop
  endfacet
  facet normal -9.396926e-001 3.420201e-001 0.000000e+000
    outer loop
      vertex   -3.654182e+000 1.626947e+000 1.200000e+001
      vertex   -3.654182e+000 1.626947e+000 0.000000e+000
      vertex   -3.845047e+000 1.102549e+000 0.000000e+000
    endloop
  endfacet
  facet normal -9.781476e-001 2.079117e-001 0.000000e+000
    outer loop
      vertex   -3.845047e+000 1.102549e+000 1.200000e+001
      vertex   -3.845047e+000 1.102549e+000 0.000000e+000
      vertex   -3.961072e+000 5.566924e-001 0.000000e+000
    endloop
  endfacet
  facet normal -9.975641e-001 6.975647e-002 0.000000e+000
    outer loop
      vertex   -3.961072e+000 5.566924e-001 1.200000e+001
      vertex   -3.961072e+000 5.566924e-001 0.000000e+000
      vertex   -4.000000e+000 0.000000e+000 0.000000e+000
    endloop
  endfacet
  facet normal 0.000000e+000 0.000000e+000 -1.000000e+000
    outer loop
      vertex   4.181139e-001 3.978088e+000 0.000000e+000
      vertex   3.901806e-001 1.961571e+000 0.000000e+000
      vertex   -1.224647e-016 2.000000e+000 0.000000e+000
    endloop
  endfacet
  facet normal 0.000000e+000 0.000000e+000 -1.000000e+000
    outer loop
      vertex   -1.236068e+000 3.804226e+000 0.000000e+000
      vertex   -6.945927e-001 3.939231e+000 0.000000e+000
      vertex   -3.901806e-001 1.961571e+000 0.000000e+000
    endloop
  endfacet
  facet normal 0.000000e+000 0.000000e+000 -1.000000e+000
    outer loop
      vertex   -1.224647e-016 2.000000e+000 0.000000e+000
      vertex   -1.395980e-001 3.997563e+000 0.000000e+000
      vertex   4.181139e-001 3.978088e+000 0.000000e+000
    endloop
  endfacet
  facet normal 0.000000e+000 -0.000000e+000 -1.000000e+000
    outer loop
      vertex   9.676876e-001 3.881183e+000 0.000000e+000
      vertex   1.498426e+000 3.708735e+000 0.000000e+000
      vertex   7.653669e-001 1.847759e+000 0.000000e+000
    endloop
  endfacet
  facet normal -0.000000e+000 0.000000e+000 -1.000000e+000
    outer loop
      vertex   3.531790e+000 -1.877886e+000 0.000000e+000
      vertex   3.236068e+000 -2.351141e+000 0.000000e+000
      vertex   1.662939e+000 -1.111140e+000 0.000000e+000
    endloop
  endfacet
  facet normal 0.000000e+000 0.000000e+000 -1.000000e+000
    outer loop
      vertex   2.462646e+000 -3.152043e+000 0.000000e+000
      vertex   1.111140e+000 -1.662939e+000 0.000000e+000
      vertex   1.414214e+000 -1.414214e+000 0.000000e+000
    endloop
  endfacet
  facet normal 0.000000e+000 0.000000e+000 -1.000000e+000
    outer loop
      vertex   -3.845047e+000 1.102549e+000 0.000000e+000
      vertex   -3.654182e+000 1.626947e+000 0.000000e+000
      vertex   -1.847759e+000 7.653669e-001 0.000000e+000
    endloop
  endfacet
  facet normal 0.000000e+000 0.000000e+000 -1.000000e+000
    outer loop
      vertex   -1.753485e+000 3.595176e+000 0.000000e+000
      vertex   -7.653669e-001 1.847759e+000 0.000000e+000
      vertex   -1.111140e+000 1.662939e+000 0.000000e+000
    endloop
  endfacet
  facet normal 0.000000e+000 0.000000e+000 -1.000000e+000
    outer loop
      vertex   -7.653669e-001 1.847759e+000 0.000000e+000
      vertex   -1.753485e+000 3.595176e+000 0.000000e+000
      vertex   -1.236068e+000 3.804226e+000 0.000000e+000
    endloop
  endfacet
  facet normal 0.000000e+000 0.000000e+000 -1.000000e+000
    outer loop
      vertex   7.653669e-001 1.847759e+000 0.000000e+000
      vertex   3.901806e-001 1.961571e+000 0.000000e+000
      vertex   9.676876e-001 3.881183e+000 0.000000e+000
    endloop
  endfacet
  facet normal 0.000000e+000 0.000000e+000 -1.000000e+000
    outer loop
      vertex   2.000000e+000 3.464102e+000 0.000000e+000
      vertex   1.111140e+000 1.662939e+000 0.000000e+000
      vertex   7.653669e-001 1.847759e+000 0.000000e+000
    endloop
  endfacet
  facet normal 0.000000e+000 -0.000000e+000 -1.000000e+000
    outer loop
      vertex   2.462646e+000 3.152043e+000 0.000000e+000
      vertex   2.877359e+000 2.778633e+000 0.000000e+000
      vertex   1.414214e+000 1.414214e+000 0.000000e+000
    endloop
  endfacet
  facet normal 0.000000e+000 0.000000e+000 -1.000000e+000
    outer loop
      vertex   3.758770e+000 -1.368081e+000 0.000000e+000
      vertex   1.847759e+000 -7.653669e-001 0.000000e+000
      vertex   1.961571e+000 -3.901806e-001 0.000000e+000
    endloop
  endfacet
  facet normal 0.000000e+000 0.000000e+000 -1.000000e+000
    outer loop
      vertex   1.847759e+000 -7.653669e-001 0.000000e+000
      vertex   3.758770e+000 -1.368081e+000 0.000000e+000
      vertex   3.531790e+000 -1.877886e+000 0.000000e+000
    endloop
  endfacet
  facet normal 0.000000e+000 0.000000e+000 -1.000000e+000
    outer loop
      vertex   1.414214e+000 -1.414214e+000 0.000000e+000
      vertex   2.877359e+000 -2.778633e+000 0.000000e+000
      vertex   2.462646e+000 -3.152043e+000 0.000000e+000
    endloop
  endfacet
  facet normal -0.000000e+000 0.000000e+000 -1.000000e+000
    outer loop
      vertex   2.000000e+000 -3.464102e+000 0.000000e+000
      vertex   1.498426e+000 -3.708735e+000 0.000000e+000
      vertex   7.653669e-001 -1.847759e+000 0.000000e+000
    endloop
  endfacet
  facet normal -0.000000e+000 0.000000e+000 -1.000000e+000
    outer loop
      vertex   4.181139e-001 -3.978088e+000 0.000000e+000
      vertex   -1.395980e-001 -3.997563e+000 0.000000e+000
      vertex   3.673940e-016 -2.000000e+000 0.000000e+000
    endloop
  endfacet
  facet normal 0.000000e+000 0.000000e+000 -1.000000e+000
    outer loop
      vertex   -1.236068e+000 -3.804226e+000 0.000000e+000
      vertex   -7.653669e-001 -1.847759e+000 0.000000e+000
      vertex   -3.901806e-001 -1.961571e+000 0.000000e+000
    endloop
  endfacet
  facet normal 0.000000e+000 0.000000e+000 -1.000000e+000
    outer loop
      vertex   -3.064178e+000 -2.571150e+000 0.000000e+000
      vertex   -3.392192e+000 -2.119677e+000 0.000000e+000
      vertex   -1.662939e+000 -1.111140e+000 0.000000e+000
    endloop
  endfacet
  facet normal 0.000000e+000 0.000000e+000 -1.000000e+000
    outer loop
      vertex   -3.961072e+000 5.566924e-001 0.000000e+000
      vertex   -1.961571e+000 3.901806e-001 0.000000e+000
      vertex   -2.000000e+000 -4.898587e-016 0.000000e+000
    endloop
  endfacet
  facet normal 0.000000e+000 0.000000e+000 -1.000000e+000
    outer loop
      vertex   -1.961571e+000 3.901806e-001 0.000000e+000
      vertex   -3.961072e+000 5.566924e-001 0.000000e+000
      vertex   -3.845047e+000 1.102549e+000 0.000000e+000
    endloop
  endfacet
  facet normal 0.000000e+000 0.000000e+000 -1.000000e+000
    outer loop
      vertex   -3.064178e+000 2.571150e+000 0.000000e+000
      vertex   -1.414214e+000 1.414214e+000 0.000000e+000
      vertex   -1.662939e+000 1.111140e+000 0.000000e+000
    endloop
  endfacet
  facet normal -0.000000e+000 0.000000e+000 -1.000000e+000
    outer loop
      vertex   -3.901806e-001 1.961571e+000 0.000000e+000
      vertex   -7.653669e-001 1.847759e+000 0.000000e+000
      vertex   -1.236068e+000 3.804226e+000 0.000000e+000
    endloop
  endfacet
  facet normal 0.000000e+000 -0.000000e+000 -1.000000e+000
    outer loop
      vertex   -1.395980e-001 3.997563e+000 0.000000e+000
      vertex   -1.224647e-016 2.000000e+000 0.000000e+000
      vertex   -3.901806e-001 1.961571e+000 0.000000e+000
    endloop
  endfacet
  facet normal 0.000000e+000 0.000000e+000 -1.000000e+000
    outer loop
      vertex   7.653669e-001 1.847759e+000 0.000000e+000
      vertex   1.498426e+000 3.708735e+000 0.000000e+000
      vertex   2.000000e+000 3.464102e+000 0.000000e+000
    endloop
  endfacet
  facet normal 0.000000e+000 0.000000e+000 -1.000000e+000
    outer loop
      vertex   1.111140e+000 1.662939e+000 0.000000e+000
      vertex   2.000000e+000 3.464102e+000 0.000000e+000
      vertex   2.462646e+000 3.152043e+000 0.000000e+000
    endloop
  endfacet
  facet normal 0.000000e+000 0.000000e+000 -1.000000e+000
    outer loop
      vertex   3.531790e+000 1.877886e+000 0.000000e+000
      vertex   1.847759e+000 7.653669e-001 0.000000e+000
      vertex   1.662939e+000 1.111140e+000 0.000000e+000
    endloop
  endfacet
  facet normal 0.000000e+000 0.000000e+000 -1.000000e+000
    outer loop
      vertex   1.662939e+000 -1.111140e+000 0.000000e+000
      vertex   1.847759e+000 -7.653669e-001 0.000000e+000
      vertex   3.531790e+000 -1.877886e+000 0.000000e+000
    endloop
  endfacet
  facet normal -0.000000e+000 0.000000e+000 -1.000000e+000
    outer loop
      vertex   3.236068e+000 -2.351141e+000 0.000000e+000
      vertex   2.877359e+000 -2.778633e+000 0.000000e+000
      vertex   1.414214e+000 -1.414214e+000 0.000000e+000
    endloop
  endfacet
  facet normal 0.000000e+000 0.000000e+000 -1.000000e+000
    outer loop
      vertex   7.653669e-001 -1.847759e+000 0.000000e+000
      vertex   1.111140e+000 -1.662939e+000 0.000000e+000
      vertex   2.000000e+000 -3.464102e+000 0.000000e+000
    endloop
  endfacet
  facet normal 0.000000e+000 0.000000e+000 -1.000000e+000
    outer loop
      vertex   9.676876e-001 -3.881183e+000 0.000000e+000
      vertex   3.901806e-001 -1.961571e+000 0.000000e+000
      vertex   7.653669e-001 -1.847759e+000 0.000000e+000
    endloop
  endfacet
  facet normal 0.000000e+000 0.000000e+000 -1.000000e+000
    outer loop
      vertex   3.901806e-001 -1.961571e+000 0.000000e+000
      vertex   9.676876e-001 -3.881183e+000 0.000000e+000
      vertex   4.181139e-001 -3.978088e+000 0.000000e+000
    endloop
  endfacet
  facet normal 0.000000e+000 0.000000e+000 -1.000000e+000
    outer loop
      vertex   -1.395980e-001 -3.997563e+000 0.000000e+000
      vertex   -6.945927e-001 -3.939231e+000 0.000000e+000
      vertex   -3.901806e-001 -1.961571e+000 0.000000e+000
    endloop
  endfacet
  facet normal 0.000000e+000 0.000000e+000 -1.000000e+000
    outer loop
      vertex   -3.901806e-001 -1.961571e+000 0.000000e+000
      vertex   -6.945927e-001 -3.939231e+000 0.000000e+000
      vertex   -1.236068e+000 -3.804226e+000 0.000000e+000
    endloop
  endfacet
  facet normal 0.000000e+000 0.000000e+000 -1.000000e+000
    outer loop
      vertex   -1.753485e+000 -3.595176e+000 0.000000e+000
      vertex   -2.236772e+000 -3.316150e+000 0.000000e+000
      vertex   -1.111140e+000 -1.662939e+000 0.000000e+000
    endloop
  endfacet
  facet normal 0.000000e+000 0.000000e+000 -1.000000e+000
    outer loop
      vertex   -1.414214e+000 -1.414214e+000 0.000000e+000
      vertex   -2.676522e+000 -2.972579e+000 0.000000e+000
      vertex   -3.064178e+000 -2.571150e+000 0.000000e+000
    endloop
  endfacet
  facet normal 0.000000e+000 0.000000e+000 -1.000000e+000
    outer loop
      vertex   -3.392192e+000 -2.119677e+000 0.000000e+000
      vertex   -3.654182e+000 -1.626947e+000 0.000000e+000
      vertex   -1.847759e+000 -7.653669e-001 0.000000e+000
    endloop
  endfacet
  facet normal -0.000000e+000 0.000000e+000 -1.000000e+000
    outer loop
      vertex   -1.847759e+000 7.653669e-001 0.000000e+000
      vertex   -1.961571e+000 3.901806e-001 0.000000e+000
      vertex   -3.845047e+000 1.102549e+000 0.000000e+000
    endloop
  endfacet
  facet normal 0.000000e+000 0.000000e+000 -1.000000e+000
    outer loop
      vertex   -3.392192e+000 2.119677e+000 0.000000e+000
      vertex   -1.662939e+000 1.111140e+000 0.000000e+000
      vertex   -1.847759e+000 7.653669e-001 0.000000e+000
    endloop
  endfacet
  facet normal 0.000000e+000 0.000000e+000 -1.000000e+000
    outer loop
      vertex   -1.662939e+000 1.111140e+000 0.000000e+000
      vertex   -3.392192e+000 2.119677e+000 0.000000e+000
      vertex   -3.064178e+000 2.571150e+000 0.000000e+000
    endloop
  endfacet
  facet normal 0.000000e+000 0.000000e+000 -1.000000e+000
    outer loop
      vertex   -2.676522e+000 2.972579e+000 0.000000e+000
      vertex   -2.236772e+000 3.316150e+000 0.000000e+000
      vertex   -1.111140e+000 1.662939e+000 0.000000e+000
    endloop
  endfacet
  facet normal 0.000000e+000 0.000000e+000 -1.000000e+000
    outer loop
      vertex   -3.901806e-001 1.961571e+000 0.000000e+000
      vertex   -6.945927e-001 3.939231e+000 0.000000e+000
      vertex   -1.395980e-001 3.997563e+000 0.000000e+000
    endloop
  endfacet
  facet normal 0.000000e+000 0.000000e+000 -1.000000e+000
    outer loop
      vertex   1.414214e+000 1.414214e+000 0.000000e+000
      vertex   1.111140e+000 1.662939e+000 0.000000e+000
      vertex   2.462646e+000 3.152043e+000 0.000000e+000
    endloop
  endfacet
  facet normal 0.000000e+000 0.000000e+000 -1.000000e+000
    outer loop
      vertex   3.236068e+000 2.351141e+000 0.000000e+000
      vertex   1.662939e+000 1.111140e+000 0.000000e+000
      vertex   1.414214e+000 1.414214e+000 0.000000e+000
    endloop
  endfacet
  facet normal 0.000000e+000 0.000000e+000 -1.000000e+000
    outer loop
      vertex   1.662939e+000 1.111140e+000 0.000000e+000
      vertex   3.236068e+000 2.351141e+000 0.000000e+000
      vertex   3.531790e+000 1.877886e+000 0.000000e+000
    endloop
  endfacet
  facet normal -0.000000e+000 0.000000e+000 -1.000000e+000
    outer loop
      vertex   3.990256e+000 2.790259e-001 0.000000e+000
      vertex   2.000000e+000 2.449294e-016 0.000000e+000
      vertex   1.961571e+000 3.901806e-001 0.000000e+000
    endloop
  endfacet
  facet normal 0.000000e+000 0.000000e+000 -1.000000e+000
    outer loop
      vertex   1.414214e+000 -1.414214e+000 0.000000e+000
      vertex   1.662939e+000 -1.111140e+000 0.000000e+000
      vertex   3.236068e+000 -2.351141e+000 0.000000e+000
    endloop
  endfacet
  facet normal 0.000000e+000 0.000000e+000 -1.000000e+000
    outer loop
      vertex   7.653669e-001 -1.847759e+000 0.000000e+000
      vertex   1.498426e+000 -3.708735e+000 0.000000e+000
      vertex   9.676876e-001 -3.881183e+000 0.000000e+000
    endloop
  endfacet
  facet normal 0.000000e+000 0.000000e+000 -1.000000e+000
    outer loop
      vertex   -3.901806e-001 -1.961571e+000 0.000000e+000
      vertex   3.673940e-016 -2.000000e+000 0.000000e+000
      vertex   -1.395980e-001 -3.997563e+000 0.000000e+000
    endloop
  endfacet
  facet normal 0.000000e+000 -0.000000e+000 -1.000000e+000
    outer loop
      vertex   -1.111140e+000 -1.662939e+000 0.000000e+000
      vertex   -7.653669e-001 -1.847759e+000 0.000000e+000
      vertex   -1.753485e+000 -3.595176e+000 0.000000e+000
    endloop
  endfacet
  facet normal 0.000000e+000 0.000000e+000 -1.000000e+000
    outer loop
      vertex   -2.676522e+000 -2.972579e+000 0.000000e+000
      vertex   -1.414214e+000 -1.414214e+000 0.000000e+000
      vertex   -1.111140e+000 -1.662939e+000 0.000000e+000
    endloop
  endfacet
  facet normal 0.000000e+000 -0.000000e+000 -1.000000e+000
    outer loop
      vertex   -1.847759e+000 -7.653669e-001 0.000000e+000
      vertex   -1.662939e+000 -1.111140e+000 0.000000e+000
      vertex   -3.392192e+000 -2.119677e+000 0.000000e+000
    endloop
  endfacet
  facet normal 0.000000e+000 0.000000e+000 -1.000000e+000
    outer loop
      vertex   -3.845047e+000 -1.102549e+000 0.000000e+000
      vertex   -1.961571e+000 -3.901806e-001 0.000000e+000
      vertex   -1.847759e+000 -7.653669e-001 0.000000e+000
    endloop
  endfacet
  facet normal 0.000000e+000 0.000000e+000 -1.000000e+000
    outer loop
      vertex   -1.847759e+000 7.653669e-001 0.000000e+000
      vertex   -3.654182e+000 1.626947e+000 0.000000e+000
      vertex   -3.392192e+000 2.119677e+000 0.000000e+000
    endloop
  endfacet
  facet normal -0.000000e+000 0.000000e+000 -1.000000e+000
    outer loop
      vertex   -1.111140e+000 1.662939e+000 0.000000e+000
      vertex   -1.414214e+000 1.414214e+000 0.000000e+000
      vertex   -2.676522e+000 2.972579e+000 0.000000e+000
    endloop
  endfacet
  facet normal 0.000000e+000 -0.000000e+000 -1.000000e+000
    outer loop
      vertex   4.181139e-001 3.978088e+000 0.000000e+000
      vertex   9.676876e-001 3.881183e+000 0.000000e+000
      vertex   3.901806e-001 1.961571e+000 0.000000e+000
    endloop
  endfacet
  facet normal 0.000000e+000 -0.000000e+000 -1.000000e+000
    outer loop
      vertex   3.531790e+000 1.877886e+000 0.000000e+000
      vertex   3.758770e+000 1.368081e+000 0.000000e+000
      vertex   1.847759e+000 7.653669e-001 0.000000e+000
    endloop
  endfacet
  facet normal 0.000000e+000 -0.000000e+000 -1.000000e+000
    outer loop
      vertex   3.758770e+000 1.368081e+000 0.000000e+000
      vertex   3.912590e+000 8.316468e-001 0.000000e+000
      vertex   1.961571e+000 3.901806e-001 0.000000e+000
    endloop
  endfacet
  facet normal 0.000000e+000 0.000000e+000 -1.000000e+000
    outer loop
      vertex   1.961571e+000 3.901806e-001 0.000000e+000
      vertex   3.912590e+000 8.316468e-001 0.000000e+000
      vertex   3.990256e+000 2.790259e-001 0.000000e+000
    endloop
  endfacet
  facet normal -0.000000e+000 0.000000e+000 -1.000000e+000
    outer loop
      vertex   2.462646e+000 -3.152043e+000 0.000000e+000
      vertex   2.000000e+000 -3.464102e+000 0.000000e+000
      vertex   1.111140e+000 -1.662939e+000 0.000000e+000
    endloop
  endfacet
  facet normal 0.000000e+000 0.000000e+000 -1.000000e+000
    outer loop
      vertex   -1.236068e+000 -3.804226e+000 0.000000e+000
      vertex   -1.753485e+000 -3.595176e+000 0.000000e+000
      vertex   -7.653669e-001 -1.847759e+000 0.000000e+000
    endloop
  endfacet
  facet normal 0.000000e+000 -0.000000e+000 -1.000000e+000
    outer loop
      vertex   -1.662939e+000 -1.111140e+000 0.000000e+000
      vertex   -1.414214e+000 -1.414214e+000 0.000000e+000
      vertex   -3.064178e+000 -2.571150e+000 0.000000e+000
    endloop
  endfacet
  facet normal 0.000000e+000 0.000000e+000 -1.000000e+000
    outer loop
      vertex   -1.847759e+000 -7.653669e-001 0.000000e+000
      vertex   -3.654182e+000 -1.626947e+000 0.000000e+000
      vertex   -3.845047e+000 -1.102549e+000 0.000000e+000
    endloop
  endfacet
  facet normal 0.000000e+000 0.000000e+000 -1.000000e+000
    outer loop
      vertex   -3.064178e+000 2.571150e+000 0.000000e+000
      vertex   -2.676522e+000 2.972579e+000 0.000000e+000
      vertex   -1.414214e+000 1.414214e+000 0.000000e+000
    endloop
  endfacet
  facet normal 0.000000e+000 0.000000e+000 -1.000000e+000
    outer loop
      vertex   1.414214e+000 1.414214e+000 0.000000e+000
      vertex   2.877359e+000 2.778633e+000 0.000000e+000
      vertex   3.236068e+000 2.351141e+000 0.000000e+000
    endloop
  endfacet
  facet normal 0.000000e+000 -0.000000e+000 -1.000000e+000
    outer loop
      vertex   3.990256e+000 2.790259e-001 0.000000e+000
      vertex   3.990256e+000 -2.790259e-001 0.000000e+000
      vertex   2.000000e+000 2.449294e-016 0.000000e+000
    endloop
  endfacet
  facet normal 0.000000e+000 0.000000e+000 -1.000000e+000
    outer loop
      vertex   3.990256e+000 -2.790259e-001 0.000000e+000
      vertex   3.912590e+000 -8.316468e-001 0.000000e+000
      vertex   1.961571e+000 -3.901806e-001 0.000000e+000
    endloop
  endfacet
  facet normal 0.000000e+000 0.000000e+000 -1.000000e+000
    outer loop
      vertex   3.673940e-016 -2.000000e+000 0.000000e+000
      vertex   3.901806e-001 -1.961571e+000 0.000000e+000
      vertex   4.181139e-001 -3.978088e+000 0.000000e+000
    endloop
  endfacet
  facet normal 0.000000e+000 0.000000e+000 -1.000000e+000
    outer loop
      vertex   -3.845047e+000 -1.102549e+000 0.000000e+000
      vertex   -3.961072e+000 -5.566924e-001 0.000000e+000
      vertex   -1.961571e+000 -3.901806e-001 0.000000e+000
    endloop
  endfacet
  facet normal 0.000000e+000 0.000000e+000 -1.000000e+000
    outer loop
      vertex   -1.111140e+000 1.662939e+000 0.000000e+000
      vertex   -2.236772e+000 3.316150e+000 0.000000e+000
      vertex   -1.753485e+000 3.595176e+000 0.000000e+000
    endloop
  endfacet
  facet normal 0.000000e+000 0.000000e+000 -1.000000e+000
    outer loop
      vertex   1.961571e+000 -3.901806e-001 0.000000e+000
      vertex   2.000000e+000 2.449294e-016 0.000000e+000
      vertex   3.990256e+000 -2.790259e-001 0.000000e+000
    endloop
  endfacet
  facet normal 0.000000e+000 0.000000e+000 -1.000000e+000
    outer loop
      vertex   -1.111140e+000 -1.662939e+000 0.000000e+000
      vertex   -2.236772e+000 -3.316150e+000 0.000000e+000
      vertex   -2.676522e+000 -2.972579e+000 0.000000e+000
    endloop
  endfacet
  facet normal 0.000000e+000 0.000000e+000 -1.000000e+000
    outer loop
      vertex   -3.961072e+000 -5.566924e-001 0.000000e+000
      vertex   -4.000000e+000 0.000000e+000 0.000000e+000
      vertex   -2.000000e+000 -4.898587e-016 0.000000e+000
    endloop
  endfacet
  facet normal 0.000000e+000 0.000000e+000 -1.000000e+000
    outer loop
      vertex   1.961571e+000 3.901806e-001 0.000000e+000
      vertex   1.847759e+000 7.653669e-001 0.000000e+000
      vertex   3.758770e+000 1.368081e+000 0.000000e+000
    endloop
  endfacet
  facet normal 0.000000e+000 -0.000000e+000 -1.000000e+000
    outer loop
      vertex   -2.000000e+000 -4.898587e-016 0.000000e+000
      vertex   -1.961571e+000 -3.901806e-001 0.000000e+000
      vertex   -3.961072e+000 -5.566924e-001 0.000000e+000
    endloop
  endfacet
  facet normal 0.000000e+000 0.000000e+000 -1.000000e+000
    outer loop
      vertex   1.961571e+000 -3.901806e-001 0.000000e+000
      vertex   3.912590e+000 -8.316468e-001 0.000000e+000
      vertex   3.758770e+000 -1.368081e+000 0.000000e+000
    endloop
  endfacet
  facet normal 0.000000e+000 0.000000e+000 -1.000000e+000
    outer loop
      vertex   -2.000000e+000 -4.898587e-016 0.000000e+000
      vertex   -4.000000e+000 0.000000e+000 0.000000e+000
      vertex   -3.961072e+000 5.566924e-001 0.000000e+000
    endloop
  endfacet
endsolid
